<svg xmlns="http://www.w3.org/2000/svg" xmlns:xlink="http://www.w3.org/1999/xlink" width="1200" height="1200" viewBox="0 0 1200 1200"><rect width="100%" height="100%" fill="#0491d7"></rect><g transform="translate(600 600) scale(0.69 0.69) rotate(0) translate(-600 -600)" style="fill:#000000"><svg fill="#000000" xmlns="http://www.w3.org/2000/svg" viewBox="0 0 64 64" x="0px" y="0px"><g data-name="Basset Hound-Dog"><rect x="50" y="21" width="2" height="2"></rect><rect x="42" y="21" width="2" height="2"></rect><path d="M61.8,18.345l-3-3.95A1,1,0,0,0,58,14H56V12a1,1,0,0,0-.293-.707l-5-5A1,1,0,0,0,50,6H44a1,1,0,0,0-.707.293l-5,5A1,1,0,0,0,38,12v2H36a1,1,0,0,0-.8.395l-3,3.955a1,1,0,0,0-.2.6v11.4L10.586,40.09A1,1,0,0,0,10,41V52H9a1,1,0,0,1-1-1V42a1,1,0,0,0-1-1,5.006,5.006,0,0,0-5,5v7a5.006,5.006,0,0,0,5,5H31a1,1,0,0,0,1-1V55a4.96,4.96,0,0,0-1.02-3h7.173l.861,5.165A1,1,0,0,0,40,58h4a1,1,0,0,0,1-1V52h2.153l.861,5.165A1,1,0,0,0,49,58h4a1,1,0,0,0,1-1V51.266l1.971-3.45,2.248,2.809A1,1,0,0,0,59,51h2a1,1,0,0,0,1-1V18.95A1,1,0,0,0,61.8,18.345ZM54,12.414v5.213L52.718,16.3A1,1,0,0,0,52,16H50v2h1.577L54,20.5v7.085l-1,1-5-5V8h1.586ZM47,49a2,2,0,0,1-2-2V42.3l1-1.5V45h2V40.8l1,1.5V47A2,2,0,0,1,47,49Zm3.535-8-1.7-2.555A1,1,0,0,0,48,38V36a1,1,0,0,0,.9-.553l1-2A1,1,0,0,0,50,33V30H48v2.764L47.382,34h-.764L46,32.764V30H44v3a1,1,0,0,0,.1.447l1,2A1,1,0,0,0,46,36v2a1,1,0,0,0-.832.445L43.465,41H41.618L41,39.764V36.236l.9-1.789A1,1,0,0,0,42,34V30.414l5-5,5,5V34a1,1,0,0,0,.1.447l.9,1.789v3.528L52.382,41ZM44.414,8H46V23.586l-5,5-1-1V20.5L42.423,18H44V16H42a1,1,0,0,0-.718.3L40,17.627V12.414ZM34,19.292,36.5,16H38V28a1,1,0,0,0,.293.707L40,30.414v3.35l-.9,1.789A1,1,0,0,0,39,36v3.764L35.385,47H34ZM32,42H24.083L19,41.153V38.462l13-5.909ZM4,53V46a3.006,3.006,0,0,1,2-2.829V51a3,3,0,0,0,3,3h1v2H7A3,3,0,0,1,4,53Zm8-11.356,5-2.273v7.215l-2.707,2.707A1,1,0,0,0,14,50v6H12ZM43,51v5H40.847l-.861-5.165A1,1,0,0,0,39,50H28a5.006,5.006,0,0,0-5-5H21v2h2a3,3,0,0,1,3,3v1a1,1,0,0,0,1,1,3,3,0,0,1,3,3v1H16V50.414l2.707-2.707A1,1,0,0,0,19,47V43.18l4.835.806A.919.919,0,0,0,24,44h8v4a1,1,0,0,0,1,1h3a1,1,0,0,0,.894-.553l3.1-6.21.1.21A1,1,0,0,0,41,43h2v4a3.975,3.975,0,0,0,1.382,3H44A1,1,0,0,0,43,51Zm9.132-.5A.993.993,0,0,0,52,51v5H49.847l-.861-5.165a.991.991,0,0,0-.115-.322A3.987,3.987,0,0,0,51,47V43h2a1,1,0,0,0,.9-.553l1-2A1,1,0,0,0,55,40V36a1,1,0,0,0-.1-.447L54,33.764v-3.35l.726-.726L56,32.236v11.5ZM60,49h-.52l-2.442-3.051.83-1.453A.993.993,0,0,0,58,44V32a1,1,0,0,0-.1-.447L56,27.764V16h1.5L60,19.287Z"></path></g></svg></g></svg>