<svg xmlns="http://www.w3.org/2000/svg" xmlns:xlink="http://www.w3.org/1999/xlink" width="1200" height="1200" viewBox="0 0 1200 1200"><rect width="100%" height="100%" fill="#e91929"></rect><g transform="translate(600 600) scale(-0.69 0.69) rotate(0) translate(-600 -600)" style="fill:#000000"><svg fill="#000000" xmlns="http://www.w3.org/2000/svg" viewBox="0 0 64 64" x="0px" y="0px"><g><path d="M61,2.923A1,1,0,0,0,60,2H57a1,1,0,0,0-.857.485l-5.75,9.583-7,.874-7.65-8.607A1,1,0,0,0,35,4H32a1,1,0,0,0-1,1v7a1,1,0,0,0,.051.316L32,15.162V18a1,1,0,0,0,.293.707L37,23.414v5.172L35.586,30H23a.925.925,0,0,0-.2.02l-10,2A1,1,0,0,0,12,33H8V30.414l1.707-1.707A1,1,0,0,0,10,28V22a1,1,0,0,0-1-1H6a1,1,0,0,0-1,1v3.667L2.2,29.4A1,1,0,0,0,2,30v4a5.006,5.006,0,0,0,5,5h5V61a1,1,0,0,0,1,1h3a1,1,0,0,0,.994-.89l.91-8.192a4.964,4.964,0,0,0,2.1-.94V59a1,1,0,0,0,1,1h3a1,1,0,0,0,.992-.876l.9-7.225A4.008,4.008,0,0,0,29,48V46h2.723L36,48.566V61a1,1,0,0,0,1,1h4a1,1,0,0,0,1-.923L42.926,49h4.148L48,61.077A1,1,0,0,0,49,62h4a1,1,0,0,0,1-1V35.3l5.832-8.748A1.006,1.006,0,0,0,60,26V19.3l1.832-2.748A1,1,0,0,0,62,15.923ZM7,37a3,3,0,0,1-3-3V30.333L6.8,26.6A1,1,0,0,0,7,26V23H8v4.586L6.293,29.293A1,1,0,0,0,6,30v3a2,2,0,0,0,2,2h4v2ZM27,48a2,2,0,0,1-2,2,1,1,0,0,0-.992.876L23.117,58H22V46h5ZM49.926,60,49,47.923A1,1,0,0,0,48,47H42a1,1,0,0,0-1,.923L40.074,60H38V48a1,1,0,0,0-.485-.857l-5-3A1,1,0,0,0,32,44H22V42H20v6a3,3,0,0,1-3,3,1,1,0,0,0-.994.89l-.9,8.11H14V33.82L23.1,32H36a1,1,0,0,0,.707-.293l1.345-1.345,6.3,5.4a.959.959,0,0,0,.256.151l.154,1.23a3.265,3.265,0,0,0,6.48,0L51.383,36H52V60Zm-1.2-29.312.379.759a1,1,0,0,0,.765.535l-.614,4.91a1.266,1.266,0,0,1-2.512,0L46.133,32H47a1,1,0,0,0,.707-.293Zm9.442-12.243A1.006,1.006,0,0,0,58,19v6.7L52.465,34h-.832l.25-2H52a1,1,0,0,0,.857-.485l3-5-1.714-1.03L51.434,30h-.816L50,28.764v-.948A3,3,0,0,0,52,25H50a1,1,0,0,1-2,0H46a3,3,0,0,0,2,2.816v.77L46.586,30H45.414l-3.707-3.707-1.414,1.414,3.757,3.757.2,1.573L39,28.54V23a1,1,0,0,0-.293-.707L34,17.586V15a1,1,0,0,0-.052-.316L33,11.838V6h1.551l7.7,8.665a1,1,0,0,0,.871.327l8-1a1,1,0,0,0,.733-.477L57.566,4h1.508l.9,11.732Z"></path><rect x="52" y="18" width="2" height="2"></rect><rect x="42" y="19" width="2" height="2"></rect><path d="M38,13H36v4a1,1,0,0,0,.293.707l2,2,1.414-1.414L38,16.586Z"></path><path d="M56,14.764l-.9,1.789,1.79.894,1-2A1,1,0,0,0,58,15V11H56Z"></path><path d="M47.586,43H42V40.414l.707-.707-1.414-1.414-1,1A1,1,0,0,0,40,40v4a1,1,0,0,0,1,1h7a1,1,0,0,0,.707-.293l2-2-1.414-1.414Z"></path></g></svg></g></svg>