<svg xmlns="http://www.w3.org/2000/svg" xmlns:xlink="http://www.w3.org/1999/xlink" width="1200" height="1200" viewBox="0 0 1200 1200"><rect width="100%" height="100%" fill="#feae25"></rect><g transform="translate(600 600) scale(0.69 0.69) rotate(0) translate(-600 -600)" style="fill:#000000"><svg fill="#000000" xmlns="http://www.w3.org/2000/svg" viewBox="0 0 64 64" x="0px" y="0px"><rect x="50" y="7" width="2" height="2"></rect><rect x="44" y="7" width="2" height="2"></rect><path d="M61.832,7.445l-2-3a1,1,0,0,0-.461-.374l-5-1.993A.97.97,0,0,0,54,2H42a.97.97,0,0,0-.368.078l-5,1.993a1,1,0,0,0-.461.374l-2,3A1.006,1.006,0,0,0,34,8v8a1,1,0,0,0,1,1h2a1,1,0,0,0,.8-.4L39,15h0V27a1,1,0,0,1-1,1H19a1,1,0,0,0-.895.553L16.882,31H8V26a5.006,5.006,0,0,0-5-5,1,1,0,0,0-1,1V34a3,3,0,0,0,3,3h9v7.838l-1.948,5.846A1,1,0,0,0,12,51V61a1,1,0,0,0,1,1h4a1,1,0,0,0,1-1V51.277l2-3.333V59a1,1,0,0,0,1,1h4a1,1,0,0,0,1-1V50.3l1.832-2.748A1.006,1.006,0,0,0,28,47V45.23l1.606.689A.985.985,0,0,0,30,46H40V61a1,1,0,0,0,1,1h4a1,1,0,0,0,1-1V46h4V61a1,1,0,0,0,1,1h4a1,1,0,0,0,1-1V21.72l.813-1.139A.994.994,0,0,0,57,20V15h0l1.2,1.6a1,1,0,0,0,.8.4h2a1,1,0,0,0,1-1V8A1.006,1.006,0,0,0,61.832,7.445ZM47,4V7h2V4h4.246L55,10.14v2.992l-1.445-.964A1.006,1.006,0,0,0,53,12H50.618L49.9,10.553A1,1,0,0,0,49,10H47a1,1,0,0,0-.9.553L45.382,12H43a1.006,1.006,0,0,0-.555.168L41,13.132V10.14L42.754,4Zm8,15.68L50.485,26h-4.97L41,19.68V15.535l1.312-.875L43.02,18.2a1,1,0,0,0,.273.511l1,1A1,1,0,0,0,45,20v1a3,3,0,0,0,6,0V20a1,1,0,0,0,.707-.293l1-1a1,1,0,0,0,.273-.511l.708-3.536L55,15.535Zm-8-.266,1-1,1,1V21a1,1,0,0,1-2,0ZM50.586,18h-.172L49,16.586v-.77A3,3,0,0,0,50.816,14h.964l-.7,3.507ZM48,14a.987.987,0,0,1-.966-.832L47.618,12h.764l.584,1.168A.987.987,0,0,1,48,14Zm-2.816,0A3,3,0,0,0,47,15.816v.77L45.586,18h-.172l-.493-.493L44.22,14ZM36.5,15H36V8.3l1.66-2.49,2.818-1.127-1.44,5.04A1.007,1.007,0,0,0,39,10v1.667ZM5,35a1,1,0,0,1-1-1V23.171A3.006,3.006,0,0,1,6,26v5a2,2,0,0,0,2,2h7.882l-1,2ZM26,46.7l-1.832,2.748A1.006,1.006,0,0,0,24,50v8H22V46.816A3,3,0,0,0,24,44v-.484l2,.857Zm28-18.03L51.2,32.4l1.6,1.2L54,32V60H52V45a1,1,0,0,0-1-1H45a1,1,0,0,0-1,1V60H42V45a1,1,0,0,0-1-1h-10.8L24,41.341V38H22v6a1,1,0,0,1-1,1H20a1,1,0,0,0-.857.485l-3,5A1,1,0,0,0,16,51v9H14V51.162l1.948-5.846A1,1,0,0,0,16,45V37.236L19.618,30H37.5l2.7,3.6,1.6-1.2-2.167-2.889A3,3,0,0,0,41,27V23.12l3.187,4.461A1,1,0,0,0,45,28h6a1,1,0,0,0,.813-.419L54,24.52ZM60,15h-.5L57,11.667V10a1.007,1.007,0,0,0-.038-.274l-1.44-5.04L58.34,5.813,60,8.3Z"></path><path d="M50,35.764V32H48v4a1,1,0,0,0,.1.447l1,2A1,1,0,0,0,50,39h2V37H50.618Z"></path><path d="M44,35.764,43.382,37H42v2h2a1,1,0,0,0,.9-.553l1-2A1,1,0,0,0,46,36V32H44Z"></path></svg></g></svg>