<svg xmlns="http://www.w3.org/2000/svg" xmlns:xlink="http://www.w3.org/1999/xlink" width="1200" height="1200" viewBox="0 0 1200 1200"><rect width="100%" height="100%" fill="#feae25"></rect><g transform="translate(600 600) scale(0.69 0.69) rotate(0) translate(-600 -600)" style="fill:#000000"><svg fill="#000000" xmlns="http://www.w3.org/2000/svg" viewBox="0 0 64 64" x="0px" y="0px"><g data-name="Hollandse Herder-Dog"><path d="M59,45H54a1,1,0,0,1-1-1V37a5.006,5.006,0,0,0-5-5H42.414l-1.707-1.707A1,1,0,0,0,40,30H22V19.181C26.045,8.805,19.969,2.555,19.707,2.293A1,1,0,0,0,18,3c0,3.079-1.266,8.133-1.764,10H11.764C11.266,11.134,10,6.082,10,3a1,1,0,0,0-1.707-.707C8.031,2.556,1.955,8.805,6,19.181l0,9.912,3,32A1,1,0,0,0,10,62h3a1,1,0,0,0,1-1V46h3.061L18,61.062A1,1,0,0,0,19,62h3a1,1,0,0,0,1-1V46h2a.993.993,0,0,0,.5-.132l3.5-2V44a3.006,3.006,0,0,0,2.089,2.859l.917,8.251A1,1,0,0,0,33,56h3a1,1,0,0,0,1-1V45.576A4.95,4.95,0,0,0,39,46h.069L40,59.071A1,1,0,0,0,41,60h3a1,1,0,0,0,1-1V38h1a1,1,0,0,1,1,1v7a5.006,5.006,0,0,0,5,5h3a5.006,5.006,0,0,0,5-5A1,1,0,0,0,59,45ZM10.566,15h6.868L20,19.277v9.457L16.42,35H11.58L8,28.734V19.277Zm9.216-9.178a14.1,14.1,0,0,1,.965,10.813l-1.89-3.15a1,1,0,0,0-.563-.437A64.9,64.9,0,0,0,19.782,5.822Zm-11.564,0a64.421,64.421,0,0,0,1.488,7.227,1,1,0,0,0-.563.437l-1.89,3.15A14.105,14.105,0,0,1,8.218,5.821ZM33.9,54l-.9-8.11A1,1,0,0,0,32,45a1,1,0,0,1-1-1V42.723L32.266,42H34.1a4.953,4.953,0,0,0,.9,1.969V54ZM43,58H41.931L41,44.929A1,1,0,0,0,40,44H39a3,3,0,0,1-3-3V39H34v1H32a.993.993,0,0,0-.5.132L24.734,44H22a1,1,0,0,0-1,1V60H19.939L19,44.938A1,1,0,0,0,18,44H13a1,1,0,0,0-1,1V60H10.91L9.18,41.574,9.2,41.6a1.012,1.012,0,0,0,.354.3l2,1,.894-1.79-1.788-.894L8.822,37.756l-.4-4.25,1.709,2.99A1,1,0,0,0,11,37h6a1,1,0,0,0,.868-.5l2.65-4.637A.972.972,0,0,0,21,32h.753l-1.642,7.391-2.666,1.777,1.11,1.664,3-2a1,1,0,0,0,.422-.615L23.8,32H27v3.7l-1.832,2.748,1.664,1.11,2-3A1.006,1.006,0,0,0,29,36V32h4v2.7l-1.832,2.748,1.664,1.11,2-3A1.006,1.006,0,0,0,35,35V32h3v3.764l-.9,1.789,1.79.894,1-2A1,1,0,0,0,40,36V32.414l3,3Zm12-9H52a3,3,0,0,1-3-3V39a3,3,0,0,0-3-3H45V35a1,1,0,0,0-.293-.707L44.414,34H48a3,3,0,0,1,3,3v7a3,3,0,0,0,3,3h3.829A3.006,3.006,0,0,1,55,49Z"></path><rect x="16" y="17" width="2" height="2"></rect><rect x="10" y="17" width="2" height="2"></rect><path d="M11.825,27.965l-.482,2.9a2.694,2.694,0,1,0,5.314,0l-.482-2.9a.984.984,0,0,0,.532-.258l2-2-1.414-1.414-1.686,1.686L15,24.764V24a1,1,0,0,0,.707-.293l1-1A1,1,0,0,0,17,22V21H15v.586L14.586,22H13.414L13,21.586V21H11v1a1,1,0,0,0,.293.707l1,1A1,1,0,0,0,13,24v.764l-.607,1.215-1.686-1.686L9.293,25.707l2,2A.984.984,0,0,0,11.825,27.965Zm2.705,3.789a.694.694,0,0,1-1.215-.562l.647-3.879L14,27.236l.038.077.647,3.879A.689.689,0,0,1,14.53,31.754Z"></path></g></svg></g></svg>