<?xml version="1.0" standalone="no"?>
<!DOCTYPE svg PUBLIC "-//W3C//DTD SVG 20010904//EN"
 "http://www.w3.org/TR/2001/REC-SVG-20010904/DTD/svg10.dtd">
<svg version="1.0" xmlns="http://www.w3.org/2000/svg"
 width="1400.000000pt" height="1152.000000pt" viewBox="0 0 1400.000000 1152.000000"
 preserveAspectRatio="xMidYMid meet">
<metadata>
Created by potrace 1.16, written by Peter Selinger 2001-2019
</metadata>
<g transform="translate(0.000000,1152.000000) scale(0.100000,-0.100000)"
fill="#000000" stroke="none">
<path d="M6043 10539 c-65 -19 -230 -241 -328 -443 -246 -505 -267 -1091 -61
-1683 l36 -102 0 -634 0 -634 35 -369 c19 -203 35 -382 35 -397 0 -36 -2 -33
-104 103 -109 146 -100 140 -217 140 l-99 0 0 90 c0 59 -5 100 -14 118 -8 15
-115 127 -239 250 l-224 222 -287 0 c-186 0 -294 -4 -307 -11 -31 -16 -437
-425 -459 -462 -16 -25 -20 -50 -20 -119 l0 -88 -90 0 c-49 0 -99 -5 -112 -11
-13 -6 -45 -41 -71 -79 -27 -38 -57 -77 -66 -87 -9 -10 -27 -34 -41 -53 -13
-19 -27 -37 -30 -40 -3 -3 -24 -30 -48 -61 l-42 -56 0 -501 0 -502 -72 -34
c-40 -18 -95 -44 -123 -56 -27 -12 -75 -34 -105 -48 -30 -14 -57 -26 -60 -27
-3 -1 -30 -13 -60 -27 -30 -14 -77 -36 -105 -48 -27 -12 -77 -35 -110 -50 -98
-46 -165 -76 -260 -118 -99 -44 -164 -73 -303 -138 -52 -24 -95 -44 -97 -44
-2 0 -38 -16 -82 -36 -43 -20 -94 -43 -113 -51 -19 -9 -69 -31 -110 -51 -237
-109 -256 -120 -268 -146 -9 -20 -12 -149 -12 -496 l0 -470 -58 0 c-102 0 -97
-27 -100 460 l-3 418 -26 26 c-23 23 -34 26 -87 25 -141 -4 -281 -92 -351
-221 -52 -95 -55 -124 -55 -509 0 -333 1 -360 21 -419 11 -34 31 -79 43 -99
36 -56 116 -130 171 -158 104 -53 98 -53 1222 -53 l1041 0 31 26 31 26 0 153
c0 91 -5 166 -11 182 -23 57 -34 79 -52 105 l-18 28 299 0 299 0 12 -73 c7
-39 16 -92 21 -117 4 -25 14 -79 20 -120 6 -41 17 -95 23 -120 21 -85 36 -90
257 -90 191 0 227 7 250 49 6 12 10 110 10 245 l0 226 88 0 88 0 13 -87 c7
-49 17 -106 21 -128 5 -22 14 -74 20 -115 19 -125 28 -149 63 -171 29 -18 47
-19 225 -17 l194 3 29 33 29 32 0 256 0 256 37 66 c20 37 47 84 60 104 12 21
23 42 23 48 0 5 5 10 10 10 6 0 10 6 10 13 0 6 5 19 10 27 10 17 18 10 80 -70
19 -25 39 -50 45 -56 5 -6 28 -34 50 -62 22 -28 49 -53 60 -56 11 -3 69 -6
128 -6 107 0 109 1 138 29 l29 29 1 939 1 938 114 -1210 c122 -1299 116 -1254
177 -1299 27 -20 41 -21 265 -21 264 0 285 4 319 68 17 30 18 97 21 1015 l2
982 185 0 c102 0 185 -1 186 -2 1 -2 29 -444 63 -983 68 -1070 63 -1026 129
-1062 28 -16 61 -18 267 -18 262 0 270 2 310 68 19 31 20 58 20 1013 l0 982
148 4 147 4 230 132 230 132 7 -56 c15 -114 96 -234 193 -285 l45 -24 0 -935
c0 -1040 -5 -969 68 -990 58 -16 343 -13 384 4 40 17 58 62 58 146 0 28 7 109
16 178 8 70 13 134 11 144 -3 10 -1 21 4 24 5 3 9 33 9 67 0 34 3 86 6 115 l7
52 71 0 c85 0 131 20 158 71 14 27 18 56 18 146 l0 113 50 0 c28 0 50 -3 50
-7 1 -13 8 -113 20 -253 5 -74 17 -229 25 -345 29 -388 31 -413 44 -429 7 -9
30 -20 50 -26 50 -14 340 -13 381 1 42 15 60 58 60 143 l0 64 133 4 c144 3
169 11 204 65 17 25 18 69 21 525 l3 498 98 0 98 0 6 -112 c3 -72 12 -130 23
-158 34 -88 103 -159 184 -190 48 -18 49 -19 54 -75 3 -28 10 -88 16 -135 6
-47 17 -141 25 -210 25 -220 32 -238 90 -260 38 -15 268 -13 283 2 7 7 12 9
12 5 0 -4 9 -3 21 3 44 24 49 61 49 355 0 151 3 275 6 275 3 0 18 -7 32 -15
15 -8 45 -21 67 -28 47 -16 51 -27 61 -168 3 -54 11 -102 15 -105 5 -3 7 -9 4
-14 -3 -5 1 -50 10 -102 8 -51 17 -136 21 -188 12 -174 31 -190 223 -190 125
0 152 5 189 38 l22 19 0 709 1 709 49 34 c105 71 205 205 245 329 l17 52 89 0
c56 0 89 4 89 11 0 5 5 7 10 4 6 -4 45 10 86 31 130 65 211 177 233 321 17
112 14 366 -4 410 -9 21 -19 40 -23 43 -4 3 -54 67 -110 142 l-102 137 0 155
c0 85 -4 166 -10 180 -20 53 -61 66 -207 66 -220 0 -215 9 -211 -360 l3 -270
83 -83 82 -82 0 -98 0 -97 -160 0 c-125 0 -160 3 -160 13 0 27 -54 65 -105 72
-27 5 -54 9 -60 11 -19 4 -130 26 -145 29 -65 10 -98 18 -115 25 -11 5 -50 14
-87 21 l-67 12 -3 381 -4 381 -26 73 c-38 104 -83 176 -158 252 -73 73 -147
120 -248 158 -65 25 -77 26 -344 32 l-276 5 36 100 37 100 3 331 3 330 -27 25
c-25 23 -30 24 -185 24 l-160 0 -52 -55 c-29 -31 -83 -91 -122 -135 -38 -43
-77 -86 -85 -95 -67 -72 -167 -187 -179 -202 -7 -11 -42 -49 -77 -85 -35 -36
-64 -70 -64 -75 0 -4 -146 -8 -325 -8 -301 0 -326 1 -332 18 -4 9 -23 44 -43
77 -21 33 -66 107 -102 165 -35 58 -82 137 -103 175 -35 63 -155 260 -209 343
-13 20 -34 36 -56 42 -54 15 -255 12 -295 -4 -58 -25 -58 -22 -84 -406 -6 -85
-16 -212 -22 -282 l-12 -128 -249 0 -248 0 0 694 0 694 25 65 c66 176 125 435
145 636 45 458 -71 935 -316 1304 -111 166 -202 249 -257 232 -7 -2 -24 -6
-39 -9 -38 -9 -76 -49 -87 -94 -5 -20 -12 -93 -15 -162 -10 -208 -71 -557
-167 -952 l-51 -208 -282 0 -282 0 -53 218 c-101 423 -156 737 -169 981 -8
146 -18 175 -65 205 -31 19 -86 26 -124 15z m47 -1089 c22 -102 49 -218 60
-258 l19 -74 -33 -29 c-18 -15 -86 -117 -151 -226 l-119 -198 -13 45 c-59 202
-80 513 -49 726 27 185 74 347 149 508 l31 69 33 -189 c17 -104 50 -272 73
-374z m1505 305 c74 -221 106 -478 87 -693 -11 -118 -36 -264 -62 -356 -14
-46 2 -66 -150 188 -73 121 -122 194 -140 204 l-26 15 38 156 c43 172 110 502
128 626 7 44 14 87 17 95 7 20 64 -104 108 -235z m-253 -1190 l168 -280 -1
-600 0 -600 -232 -405 -233 -405 -306 -3 -306 -2 -231 404 -231 405 0 608 0
607 166 278 167 278 435 -2 436 -3 168 -280z m1325 -1082 c27 -43 74 -121 103
-173 29 -52 68 -116 86 -143 19 -27 34 -55 34 -62 0 -7 4 -15 8 -17 8 -3 64
-92 173 -276 23 -40 38 -54 60 -59 16 -3 32 -10 35 -14 3 -5 10 -7 15 -3 10 6
282 -23 309 -33 8 -3 22 -5 30 -5 8 1 63 -6 122 -16 59 -10 133 -18 166 -18
l59 1 54 59 c30 33 63 69 74 81 11 12 43 49 72 83 48 58 79 92 263 296 36 40
92 104 125 144 l60 71 63 0 62 1 0 -235 c0 -159 -3 -235 -11 -235 -5 0 -7 -4
-4 -10 3 -5 -12 -59 -34 -120 -39 -105 -41 -115 -41 -228 l0 -117 -187 -185
c-104 -101 -196 -195 -205 -209 -16 -23 -18 -54 -18 -262 l0 -236 -72 -62
c-40 -33 -82 -70 -93 -80 -11 -10 -58 -51 -105 -90 -47 -39 -100 -86 -118
-104 l-32 -32 6 35 c3 19 7 45 10 57 4 23 208 233 225 233 5 0 9 6 9 13 0 6
16 25 35 41 19 16 35 36 35 45 0 17 -98 121 -115 121 -6 0 -78 -67 -160 -150
-143 -143 -152 -150 -190 -150 -35 0 -46 7 -97 57 -70 69 -77 103 -27 129 30
15 100 78 99 89 -1 12 24 91 32 99 24 29 7 36 -85 36 l-93 0 -11 -30 c-16 -41
-56 -59 -91 -39 -15 8 -33 27 -40 42 -13 26 -16 27 -98 27 l-84 0 0 -32 c0
-32 35 -116 62 -150 8 -9 33 -26 56 -38 36 -19 42 -27 42 -53 0 -18 -12 -55
-27 -84 -24 -44 -32 -53 -55 -53 -18 0 -28 5 -28 15 0 8 -4 15 -9 15 -5 0 -14
12 -20 28 -6 15 -39 72 -75 127 -35 55 -62 103 -59 107 2 5 0 8 -5 8 -5 0 -17
16 -28 35 -10 19 -24 35 -30 35 -21 0 -143 -75 -144 -88 0 -7 33 -66 73 -130
40 -64 95 -155 121 -202 61 -107 73 -120 106 -120 25 0 28 -4 34 -46 3 -26 6
-62 6 -80 0 -29 -3 -34 -25 -34 -17 0 -29 9 -40 29 -8 16 -21 35 -28 43 -7 7
-43 60 -80 118 -36 58 -70 110 -75 115 -32 40 -212 313 -212 323 0 4 -12 18
-25 31 l-25 23 0 292 0 292 -80 122 -80 122 10 78 c5 42 14 145 20 227 6 83
13 175 16 205 5 59 8 114 19 280 9 158 6 150 69 150 l54 0 49 -77z m-4197
-1126 l0 -652 -207 -207 -207 -208 -38 37 -38 37 0 294 0 295 101 105 102 105
68 -2 69 -2 0 95 0 96 -106 0 c-58 0 -114 -5 -124 -10 -11 -6 -39 -32 -64 -58
l-46 -47 0 205 0 204 185 186 185 185 60 -3 60 -4 0 -651z m690 75 l0 -202
-61 60 -62 60 -108 0 -109 0 0 -96 0 -95 66 2 66 2 104 -109 104 -109 0 -285
0 -286 -43 -42 -42 -42 -208 208 -207 207 0 652 0 652 58 3 57 3 193 -190 192
-190 0 -203z m2570 215 c0 -3 -195 -883 -205 -923 -3 -13 -65 -61 -175 -134
-93 -62 -170 -119 -170 -127 0 -7 30 -58 67 -113 44 -67 72 -100 85 -100 25 0
403 254 423 284 9 13 69 265 135 560 65 295 122 541 125 546 4 6 58 10 126 10
l119 0 0 -42 c0 -36 11 -59 75 -155 l75 -112 0 -80 0 -81 -115 -173 c-63 -94
-115 -179 -115 -187 1 -16 193 -150 216 -150 7 0 20 10 29 23 10 14 18 18 23
11 4 -6 33 -49 65 -95 77 -112 127 -189 127 -197 0 -4 -116 -73 -258 -154
l-257 -147 -202 -3 c-186 -3 -204 -5 -230 -24 -15 -11 -34 -32 -40 -45 -10
-19 -13 -248 -13 -1011 l0 -988 -65 0 c-45 0 -65 4 -65 13 0 6 -27 451 -61
987 -66 1071 -60 1017 -129 1053 -32 16 -67 17 -402 15 l-368 -3 -37 -38 -38
-37 -3 -995 -2 -995 -65 0 c-56 0 -65 3 -65 18 0 22 -208 2246 -214 2289 l-5
32 140 -69 c76 -39 146 -70 154 -70 14 0 125 205 125 233 0 7 -52 38 -115 69
l-114 57 -119 158 -119 158 -22 238 c-13 132 -21 240 -19 243 2 2 50 -77 106
-174 56 -98 111 -187 123 -198 20 -18 42 -19 463 -22 395 -3 444 -1 472 13 26
14 66 76 209 326 l177 309 74 0 c41 0 74 -1 74 -3z m3562 -299 c91 -45 147
-103 191 -196 l32 -67 3 -319 c2 -175 1 -323 -1 -330 -3 -7 -40 -10 -121 -8
l-116 3 0 174 c0 96 -5 198 -11 227 -25 118 -106 221 -214 273 -53 26 -73 30
-177 33 l-118 4 0 83 c0 70 -3 87 -24 118 -13 19 -21 38 -18 42 4 4 117 5 253
3 l245 -3 76 -37z m-7500 -525 c0 -285 2 -524 2 -530 1 -7 38 -50 84 -96 l82
-82 0 -139 0 -139 -42 -86 -43 -86 -2 -175 -2 -175 -148 -297 -148 -298 -52 0
-53 0 0 1165 c0 1092 1 1166 18 1193 9 15 53 74 97 131 44 57 84 110 90 117 6
9 29 14 62 14 l53 0 2 -517z m1680 487 c13 -17 38 -49 56 -73 17 -23 36 -46
40 -52 4 -5 29 -38 55 -72 l47 -61 0 -1252 c0 -1165 -1 -1251 -17 -1257 -9 -4
-19 -1 -21 5 -2 7 -9 18 -16 25 -6 6 -42 50 -79 97 -38 47 -75 93 -83 103 -20
24 -18 32 19 85 l32 47 3 554 2 554 -85 171 -85 171 0 493 0 492 54 0 c49 0
57 -3 78 -30z m5008 -525 l0 -355 -23 0 c-14 0 -45 23 -85 63 l-62 64 0 209 0
209 82 82 c46 46 84 83 85 83 2 0 3 -160 3 -355z m2284 217 c3 -5 6 -71 7
-147 1 -87 5 -143 13 -152 6 -7 16 -19 21 -26 6 -7 54 -69 108 -139 l97 -127
0 -178 c0 -198 -8 -229 -70 -291 -68 -69 -91 -74 -362 -79 l-197 -4 -6 23 c-4
13 -5 49 -3 79 l3 54 192 5 191 5 38 31 c54 44 62 76 63 255 l1 156 -31 39
c-17 21 -53 59 -79 84 l-49 46 0 187 0 187 29 0 c16 0 31 -4 34 -8z m-1829
-148 c64 -30 70 -49 73 -241 l4 -173 -126 0 -126 0 0 215 0 215 71 0 c44 0 84
-6 104 -16z m-5945 -917 l0 -168 40 -75 40 -76 0 -142 c0 -140 -1 -143 -31
-199 l-31 -57 -62 0 -63 0 -83 121 c-58 85 -92 125 -112 133 -27 10 -28 12
-28 83 l0 73 33 13 c28 12 41 31 85 121 l52 108 0 144 0 144 -95 0 -95 0 0
-120 c0 -109 -2 -125 -25 -170 -20 -40 -30 -50 -50 -50 -20 0 -29 10 -50 55
-22 49 -25 69 -25 170 l0 115 -95 0 -95 0 0 -141 0 -142 53 -108 c42 -88 58
-111 85 -124 32 -16 32 -16 32 -90 0 -53 -4 -75 -12 -75 -17 0 -68 -44 -68
-58 0 -6 -4 -12 -9 -14 -5 -1 -17 -17 -27 -34 -11 -17 -38 -59 -62 -93 l-43
-61 -64 0 -65 0 -30 62 c-29 59 -30 67 -30 192 l0 131 45 90 45 89 0 165 0
166 207 207 208 208 212 -212 213 -213 0 -168z m5287 402 c26 -28 60 -57 75
-65 23 -12 120 -14 577 -14 369 0 564 -3 597 -11 27 -6 60 -12 74 -14 14 -2
48 -9 75 -15 28 -5 67 -12 88 -15 21 -2 43 -7 49 -11 5 -4 29 -8 52 -10 22 -2
106 -18 186 -36 l145 -33 0 -1065 0 -1065 -40 0 c-36 0 -40 3 -41 25 -1 14 -5
33 -9 43 -4 9 -5 28 -3 42 3 13 1 26 -3 27 -4 2 -10 42 -13 90 -2 48 -7 91
-10 96 -3 5 -8 47 -11 93 -3 46 -12 129 -20 184 -14 102 -26 125 -66 125 -10
0 -20 4 -23 9 -3 5 -14 7 -24 4 -51 -13 -161 71 -198 152 -23 48 -24 58 -24
318 l0 268 -87 -3 -88 -3 -3 -82 -3 -83 -418 0 -419 0 -64 -36 c-105 -59 -362
-216 -378 -231 -13 -12 -16 -88 -20 -526 l-5 -512 -80 0 c-78 0 -80 1 -82 25
-2 36 -23 324 -28 395 -19 272 -44 561 -52 593 -11 47 -41 52 -333 52 l-272 0
-29 -29 c-26 -26 -36 -63 -30 -103 0 -4 -6 -85 -14 -180 -8 -95 -16 -211 -19
-258 -11 -182 -36 -482 -41 -491 -4 -5 -40 -9 -81 -9 l-74 0 0 981 c0 922 1
980 17 977 13 -2 20 -21 29 -73 15 -91 33 -133 75 -174 52 -53 111 -75 199
-75 87 0 147 22 197 74 44 45 64 92 77 178 8 61 15 77 36 92 14 10 42 34 63
54 22 20 55 49 75 64 20 15 44 35 52 44 8 9 53 49 100 88 47 39 112 96 145
125 33 30 63 55 67 55 4 0 29 -23 55 -51z m-802 -75 c19 -3 45 -4 58 0 24 6
24 5 16 -47 -4 -28 -15 -121 -25 -206 -10 -87 -23 -159 -30 -166 -7 -7 -11
-15 -8 -18 8 -8 -51 -37 -76 -37 -35 0 -76 27 -88 57 -6 15 -18 93 -27 173 -9
80 -20 169 -24 198 -7 46 -6 52 10 52 11 0 29 18 45 46 l27 46 44 -45 c29 -31
56 -48 78 -53z m-4196 -217 l51 -104 0 -472 0 -472 -121 -210 c-144 -252 -159
-278 -173 -304 -6 -11 -19 -32 -29 -47 -16 -24 -18 -51 -17 -258 l1 -231 -88
3 -88 3 -23 135 c-53 319 -51 301 -30 321 66 59 83 78 103 110 22 34 45 99 50
144 1 11 3 100 4 198 l1 177 99 0 c121 0 124 2 188 130 l47 95 4 193 4 192
-46 98 -46 98 0 129 c0 118 2 131 22 152 12 13 25 23 29 23 4 0 30 -47 58
-103z m-1999 -517 l0 -391 -357 4 c-322 3 -404 7 -453 22 -8 3 -38 7 -65 11
-27 3 -52 7 -55 9 -4 2 -30 7 -59 10 -103 12 -101 10 -101 129 0 100 1 105 23
111 12 4 45 17 72 30 28 13 76 35 108 49 64 29 115 52 270 125 60 28 110 51
113 51 2 0 42 18 89 40 47 22 88 40 90 40 4 0 63 27 275 128 25 11 46 21 48
22 1 0 2 -176 2 -390z m9110 163 c-1 -5 -7 -19 -15 -33 l-14 -25 -1 33 c0 22
5 32 15 32 8 0 15 -3 15 -7z m-10380 -646 l0 -292 -129 -129 c-72 -71 -130
-132 -129 -135 0 -3 0 -126 -1 -273 l-1 -268 -80 0 -80 0 0 601 0 600 68 30
c37 17 90 41 117 54 28 13 77 35 110 49 33 15 71 33 85 40 14 8 28 15 33 15 4
1 7 -131 7 -292z m2555 -177 l95 0 2 162 3 161 33 -53 33 -54 -3 -215 -3 -216
-29 -38 c-62 -80 -144 -93 -227 -36 -55 38 -61 71 -60 306 l1 215 27 42 28 43
3 -159 2 -158 95 0z m6965 -240 l0 -490 -35 0 c-42 0 -38 -17 -70 255 -14 116
-29 244 -35 285 -5 41 -10 78 -10 82 0 15 -46 37 -90 43 -59 9 -92 29 -124 78
-24 37 -26 50 -26 139 l0 98 195 0 195 0 0 -490z m-7541 433 c8 -15 27 -19
120 -21 l111 -4 0 -199 c0 -216 9 -263 65 -339 l25 -34 -32 -13 c-57 -24 -57
-28 -58 -275 l0 -228 -85 0 c-61 0 -85 4 -86 13 0 6 -2 19 -4 27 -2 8 -19 107
-38 219 -32 189 -36 206 -61 228 l-27 23 -480 0 c-449 0 -479 1 -480 18 -5 76
-34 167 -66 211 -59 80 -149 147 -233 175 -54 18 -66 19 -202 17 l-108 -1 0
-89 0 -89 108 -5 c144 -6 164 -12 230 -71 54 -48 82 -117 82 -202 0 -126 14
-143 132 -159 63 -8 135 -58 172 -118 23 -38 30 -62 34 -122 l5 -75 -587 0
-586 0 0 231 0 230 114 113 c62 62 119 122 125 134 7 13 11 84 11 191 l0 170
23 -4 c12 -2 38 -6 57 -9 19 -3 46 -8 60 -10 26 -5 91 -15 125 -20 11 -2 38
-7 60 -11 58 -12 60 -12 428 -13 l337 -2 0 -184 0 -183 26 -27 27 -26 171 0
c119 1 176 4 186 13 8 7 74 130 145 274 72 144 133 262 137 263 4 0 11 -8 17
-17z m-2919 -410 c0 -331 2 -361 19 -398 26 -55 68 -98 119 -124 47 -24 68
-28 150 -30 l52 -1 0 -76 0 -76 -162 4 c-157 3 -165 4 -203 29 -22 15 -51 40
-65 55 -67 77 -72 118 -68 494 l3 315 29 50 c31 55 90 115 112 115 12 0 14
-61 14 -357z m9410 -23 l0 -330 -40 0 -40 0 0 309 0 309 33 20 c17 11 35 21
40 21 4 1 7 -147 7 -329z"/>
<path d="M6210 8465 l0 -135 135 0 135 0 0 113 c0 61 3 122 6 135 l6 22 -141
0 -141 0 0 -135z"/>
<path d="M6990 8465 l0 -135 135 0 135 0 0 135 0 135 -135 0 -135 0 0 -135z"/>
<path d="M6340 8001 c0 -44 5 -92 10 -107 18 -46 169 -193 212 -206 36 -11 38
-13 38 -52 -1 -27 -14 -66 -38 -114 l-37 -72 -100 100 c-55 55 -107 100 -115
100 -23 0 -180 -162 -180 -186 0 -26 255 -280 291 -289 l25 -6 -35 -211 c-31
-188 -33 -217 -24 -274 21 -123 87 -214 191 -262 50 -24 69 -27 162 -27 95 0
111 3 162 28 108 53 179 165 186 292 2 47 -7 130 -27 252 -17 99 -31 186 -31
191 0 6 10 14 23 17 29 9 297 275 297 295 0 22 -163 180 -186 180 -11 0 -61
-42 -119 -100 l-100 -100 -37 72 c-24 48 -37 87 -38 114 0 39 2 41 38 52 25 8
65 39 127 102 l90 90 3 100 4 100 -136 0 -136 0 0 -39 c0 -32 -6 -44 -31 -65
-25 -22 -41 -26 -89 -26 -52 0 -64 4 -95 31 -27 24 -35 39 -35 65 l0 34 -135
0 -135 0 0 -79z m441 -1024 c39 -234 40 -249 24 -273 -25 -38 -58 -49 -96 -34
-59 25 -60 43 -15 315 22 134 41 243 43 242 1 -2 21 -114 44 -250z"/>
<path d="M8582 6821 l3 -186 45 -87 c24 -49 48 -88 53 -88 22 0 147 76 147 90
0 8 -9 28 -19 44 -11 17 -18 33 -15 38 3 4 1 8 -4 8 -23 0 -32 58 -32 209 l0
158 -91 0 -90 0 3 -186z"/>
<path d="M10230 6692 l0 -137 -70 -73 c-38 -40 -70 -78 -70 -85 0 -12 105
-127 116 -127 8 0 173 171 184 192 6 9 10 96 10 192 l0 176 -85 0 -85 0 0
-138z"/>
<path d="M8910 6335 l0 -85 90 0 90 0 0 85 0 85 -90 0 -90 0 0 -85z"/>
<path d="M9730 6249 c0 -90 0 -91 23 -85 12 3 52 6 90 6 l67 0 0 85 0 85 -90
0 -90 0 0 -91z"/>
<path d="M4137 5923 c-4 -3 -7 -46 -7 -95 l0 -88 95 0 95 0 0 95 0 95 -88 0
c-49 0 -92 -3 -95 -7z"/>
<path d="M4820 5835 l0 -95 90 0 90 0 0 95 0 95 -90 0 -90 0 0 -95z"/>
<path d="M9897 4706 c-26 -30 -47 -60 -47 -66 0 -6 11 -26 25 -44 22 -30 25
-42 25 -124 l0 -92 -227 0 -228 1 -65 64 c-36 36 -69 65 -75 65 -20 -1 -115
-96 -115 -116 0 -21 153 -172 188 -186 9 -4 150 -7 313 -7 308 -1 350 4 370
41 6 12 10 95 9 216 l-1 196 -47 52 c-26 28 -54 52 -63 53 -8 1 -36 -23 -62
-53z"/>
<path d="M2450 2555 l0 -65 70 0 70 0 0 -480 0 -480 -54 0 c-29 0 -67 -3 -83
-6 -48 -9 -53 17 -53 265 0 247 -8 289 -67 346 -55 54 -114 68 -252 63 -122
-5 -212 -29 -243 -66 -9 -9 -21 -57 -28 -106 -14 -103 -13 -106 67 -106 l51 0
14 62 c13 60 14 63 53 74 56 17 139 17 181 -1 43 -18 73 -79 74 -146 l0 -47
-137 -5 c-186 -6 -271 -35 -327 -110 -22 -30 -34 -145 -22 -212 16 -84 99
-136 227 -143 102 -5 151 12 223 78 33 31 46 38 46 26 0 -30 29 -75 58 -90 23
-12 72 -13 280 -9 l252 6 0 64 0 63 -55 0 -55 0 0 115 0 115 54 0 54 0 92
-112 92 -113 -46 -3 -46 -3 0 -65 0 -64 365 0 365 0 0 65 0 65 -65 0 -65 0 0
183 c0 156 3 188 19 223 41 89 132 143 223 131 54 -7 88 -33 116 -87 21 -42
22 -56 22 -247 l0 -203 -65 0 -65 0 0 -65 0 -65 210 0 210 0 0 65 0 65 -70 0
-70 0 0 233 c0 268 -7 305 -72 368 -50 48 -112 69 -207 69 -94 0 -162 -23
-213 -71 l-38 -36 0 264 0 263 -140 0 -140 0 0 -65 0 -65 65 0 65 0 0 -480 0
-480 -84 0 -84 0 -117 144 c-65 79 -118 147 -117 151 0 4 41 58 92 121 l92
114 59 0 59 0 0 65 0 65 -190 0 -190 0 0 -64 0 -65 45 -3 45 -3 -76 -92 -75
-93 -55 0 -54 0 0 375 0 375 -145 0 -145 0 0 -65z m-247 -805 l47 0 0 -35 c0
-163 -243 -267 -326 -140 -19 28 -15 95 7 121 29 35 148 69 204 58 11 -2 41
-4 68 -4z"/>
<path d="M12400 2555 l0 -65 70 0 70 0 0 -480 0 -480 -65 0 -65 0 0 -65 0 -65
195 0 195 0 0 65 0 65 -55 0 -55 0 0 115 0 115 54 0 54 0 92 -112 92 -113 -46
-3 -46 -3 0 -65 0 -64 195 0 195 0 0 65 0 65 -54 0 -54 0 -117 144 c-65 79
-118 147 -117 151 0 4 41 58 92 121 l92 114 59 0 59 0 0 65 0 65 -190 0 -190
0 0 -64 0 -65 45 -3 45 -3 -76 -92 -75 -93 -55 0 -54 0 0 375 0 375 -145 0
-145 0 0 -65z"/>
<path d="M1013 2545 c-126 -34 -224 -105 -304 -218 -71 -102 -101 -200 -102
-342 -1 -62 4 -134 12 -165 49 -203 202 -365 392 -415 71 -19 258 -19 329 0
191 51 344 203 395 395 90 332 -85 665 -391 745 -73 19 -260 19 -331 0z m277
-146 c176 -40 300 -217 300 -429 -1 -134 -37 -232 -121 -325 -85 -92 -210
-133 -351 -113 -285 39 -437 384 -294 666 87 172 262 247 466 201z"/>
<path d="M7160 2485 l0 -65 70 0 70 0 0 -445 0 -445 -70 0 -70 0 0 -65 0 -65
318 0 c244 0 331 4 380 15 191 45 336 191 387 390 20 77 19 260 0 344 -33 139
-133 271 -253 334 -116 61 -158 67 -514 67 l-318 0 0 -65z m683 -91 c153 -60
244 -199 254 -389 9 -162 -35 -285 -134 -375 -86 -79 -136 -93 -340 -98 l-173
-4 0 447 0 447 173 -4 c136 -4 182 -9 220 -24z"/>
<path d="M10210 2486 l0 -66 70 0 70 0 0 -445 0 -445 -70 0 -70 0 0 -65 0 -65
245 0 245 0 0 65 0 65 -100 0 -100 0 0 144 0 144 173 4 c162 3 175 5 229 30
119 55 184 147 198 278 10 93 -5 182 -42 252 -36 69 -72 101 -148 137 l-55 26
-322 3 -323 3 0 -65z m618 -102 c47 -24 61 -38 85 -84 26 -49 28 -62 25 -126
-7 -101 -35 -150 -111 -188 -52 -26 -69 -29 -192 -34 l-135 -5 0 238 0 238
136 -5 c124 -5 140 -8 192 -34z"/>
<path d="M6410 2320 l0 -130 -65 0 -65 0 0 -60 0 -60 65 0 65 0 0 -257 c0
-230 2 -262 19 -298 41 -88 109 -125 233 -125 148 1 227 64 252 203 6 34 5 38
-21 48 -15 6 -43 12 -61 13 -30 1 -35 -3 -47 -38 -19 -55 -54 -86 -102 -93
-49 -6 -78 8 -103 50 -18 29 -20 52 -20 265 l0 232 150 0 150 0 0 60 0 60
-150 0 -150 0 0 130 0 130 -75 0 -75 0 0 -130z"/>
<path d="M5390 2189 c-14 -6 -40 -24 -57 -42 l-33 -31 0 37 0 37 -145 0 -146
0 3 -62 3 -63 68 -3 67 -3 0 -264 0 -265 -110 0 -110 0 0 330 0 330 -155 0
-155 0 0 -65 0 -65 80 0 80 0 0 -177 c0 -165 -2 -182 -24 -228 -69 -149 -241
-181 -330 -61 -20 26 -21 43 -24 312 l-3 284 -145 0 -144 0 0 -65 0 -65 70 0
70 0 0 -226 c0 -131 5 -243 11 -269 15 -58 71 -122 133 -151 41 -19 68 -24
136 -24 96 0 158 23 218 78 l32 31 0 -50 0 -49 350 0 350 0 0 65 0 65 -91 0
-90 0 3 208 c3 193 5 210 26 250 28 53 75 83 122 80 37 -3 44 -15 65 -112 l6
-29 61 7 c34 3 63 7 64 9 4 3 -24 197 -31 215 -13 35 -162 56 -225 31z"/>
<path d="M5835 2182 c-108 -37 -154 -98 -155 -204 0 -143 57 -188 297 -233
136 -26 183 -55 183 -115 -1 -84 -158 -135 -294 -96 l-58 17 6 48 c6 45 4 49
-16 55 -13 3 -42 6 -64 6 -47 0 -49 -3 -60 -130 l-7 -67 44 -21 c83 -40 164
-54 283 -50 96 3 119 7 171 31 114 53 149 108 143 228 -6 140 -41 164 -331
224 -94 20 -137 51 -137 99 0 80 124 121 243 80 49 -17 52 -21 63 -97 l7 -49
61 7 c33 4 63 9 64 10 9 8 -19 200 -30 211 -7 7 -48 24 -90 38 -95 32 -243 36
-323 8z"/>
<path d="M8512 2182 c-215 -77 -311 -386 -190 -615 37 -69 82 -111 158 -146
50 -24 66 -26 180 -26 122 0 128 1 192 33 104 51 167 136 193 256 l12 61 8
-50 c19 -125 79 -217 176 -270 46 -25 68 -30 145 -33 119 -5 176 13 240 75
l47 45 -6 -85 c-10 -148 -69 -238 -173 -267 -100 -28 -224 18 -277 103 -17 26
-35 47 -42 47 -7 0 -33 -9 -59 -20 -51 -23 -56 -37 -32 -94 23 -55 81 -111
148 -142 59 -27 71 -29 193 -29 127 0 132 1 197 33 102 50 164 136 188 262 5
29 10 207 10 396 l0 344 60 0 60 0 0 65 0 65 -135 0 -135 0 0 -47 0 -47 -32
31 c-56 53 -94 66 -200 71 -115 5 -175 -11 -236 -64 -50 -42 -119 -174 -128
-244 -8 -59 -19 -57 -26 3 -12 107 -105 235 -201 278 -73 32 -257 38 -335 11z
m223 -123 c62 -17 129 -90 150 -164 56 -191 -54 -375 -226 -375 -132 0 -230
114 -230 269 0 96 23 164 75 215 61 61 140 80 231 55z m786 0 c47 -15 104 -61
126 -102 9 -18 18 -67 21 -117 7 -121 -14 -187 -77 -250 -94 -94 -224 -93
-308 3 -42 48 -58 98 -58 187 0 205 131 328 296 279z"/>
<path d="M11282 2184 c-59 -16 -103 -36 -119 -56 -6 -7 -16 -53 -23 -102 -14
-103 -13 -106 67 -106 l51 0 14 62 c13 60 14 63 53 74 56 17 139 17 181 -1 43
-18 73 -79 74 -146 l0 -47 -137 -5 c-186 -6 -271 -35 -327 -110 -22 -30 -34
-145 -22 -212 16 -84 99 -136 227 -143 102 -5 151 12 223 78 33 31 46 38 46
26 0 -30 29 -75 58 -90 22 -11 81 -13 325 -8 l297 5 0 63 0 64 -91 0 -90 0 3
208 c3 193 5 210 26 250 28 53 75 83 122 80 37 -3 44 -15 65 -112 l6 -29 61 7
c34 3 63 7 64 9 4 3 -24 197 -31 215 -13 36 -157 56 -222 31 -15 -5 -43 -24
-60 -42 l-33 -31 0 37 0 37 -145 0 -146 0 3 -62 3 -63 68 -3 67 -3 0 -264 0
-265 -62 0 c-35 0 -69 -4 -77 -9 -21 -13 -47 -2 -60 25 -7 16 -11 103 -11 243
0 247 -8 289 -67 346 -19 19 -55 41 -81 49 -58 20 -226 20 -300 0z m251 -434
l47 0 0 -35 c0 -163 -243 -267 -326 -140 -19 28 -15 95 7 121 29 35 148 69
204 58 11 -2 41 -4 68 -4z"/>
</g>
</svg>
