<?xml version="1.0" standalone="no"?>
<!DOCTYPE svg PUBLIC "-//W3C//DTD SVG 20010904//EN"
 "http://www.w3.org/TR/2001/REC-SVG-20010904/DTD/svg10.dtd">
<svg version="1.0" xmlns="http://www.w3.org/2000/svg"
 width="1350.000000pt" height="1350.000000pt" viewBox="0 0 1350.000000 1350.000000"
 preserveAspectRatio="xMidYMid meet">
<metadata>
Created by potrace 1.16, written by Peter Selinger 2001-2019
</metadata>
<g transform="translate(0.000000,1350.000000) scale(0.100000,-0.100000)"
fill="#000000" stroke="none">
<path d="M0 6750 l0 -6750 6750 0 6750 0 0 6750 0 6750 -6750 0 -6750 0 0
-6750z m7366 3996 c19 -55 47 -156 61 -225 25 -114 27 -146 28 -346 0 -191 -3
-235 -23 -334 -41 -203 -29 -205 -166 24 -78 130 -128 203 -146 213 l-27 16
29 110 c33 130 122 564 140 685 l12 84 29 -64 c15 -35 44 -109 63 -163z
m-1593 151 c11 -92 77 -416 123 -609 l45 -186 -35 -34 c-19 -18 -84 -115 -145
-216 -60 -101 -111 -180 -114 -175 -10 17 -47 192 -58 278 -17 129 -6 433 20
555 36 172 128 440 151 440 4 0 10 -24 13 -53z m1344 -1352 l162 -270 1 -607
0 -606 -229 -399 -228 -398 -304 -2 -304 -3 -227 399 -228 399 0 608 0 608
163 273 162 273 434 -3 435 -2 163 -270z m383 -1935 c0 -14 -200 -912 -205
-920 -2 -3 -81 -57 -174 -120 -94 -62 -171 -118 -171 -124 0 -5 32 -59 72
-119 58 -88 76 -108 92 -105 31 6 413 264 431 291 11 17 255 1074 255 1104 0
2 54 3 121 3 l121 0 -2 -27 c-4 -51 0 -59 75 -172 l75 -113 0 -72 0 -71 -120
-180 c-66 -99 -120 -184 -120 -190 1 -11 214 -155 230 -155 5 0 15 9 22 20 7
11 16 20 19 20 3 0 35 -43 70 -96 35 -53 78 -118 96 -145 l32 -48 -57 -34
c-31 -18 -149 -86 -262 -150 l-206 -117 -189 0 c-215 0 -244 -7 -277 -70 -17
-33 -18 -84 -18 -1017 l0 -983 -55 0 c-37 0 -55 4 -55 13 0 6 -27 451 -61 987
-66 1070 -60 1017 -129 1052 -31 16 -72 18 -398 18 -394 0 -397 0 -441 -56
-21 -27 -21 -28 -21 -1020 l0 -994 -60 0 c-48 0 -60 3 -60 16 0 16 -207 2236
-213 2286 -3 26 -2 26 135 -43 76 -38 144 -69 151 -69 12 0 127 219 127 243 0
7 -52 38 -115 69 l-114 57 -119 158 -119 158 -21 224 c-12 124 -20 226 -19
228 2 1 48 -75 103 -170 82 -143 105 -175 134 -189 32 -16 75 -18 460 -18 396
0 428 1 460 19 30 16 61 64 210 325 l175 306 68 0 c38 0 67 -4 67 -10z m3552
-279 c76 -30 161 -108 201 -185 l32 -61 3 -335 3 -335 -115 3 -115 3 -3 207
c-3 200 -4 209 -30 264 -29 63 -95 139 -149 173 -58 37 -128 56 -234 63 l-100
7 -5 86 c-3 59 -11 94 -23 113 l-18 28 248 -4 c230 -3 252 -5 305 -27z m-792
-566 l0 -345 -22 0 c-14 0 -45 22 -80 57 l-58 57 0 212 0 212 71 76 c39 42 75
76 80 76 5 0 9 -147 9 -345z m2207 -532 c-2 -27 -3 -5 -3 47 0 52 1 74 3 48 2
-27 2 -69 0 -95z m-307 -574 c-7 -11 -14 -18 -17 -15 -8 8 5 36 17 36 7 0 7
-6 0 -21z m-1900 -1049 l0 -330 -40 0 -40 0 0 308 0 307 38 22 c20 12 38 22
40 23 1 0 2 -148 2 -330z m-3023 -1877 c-1 -125 -2 -25 -2 222 0 248 1 350 2
228 2 -122 2 -324 0 -450z"/>
<path d="M5990 9445 l0 -145 140 0 141 0 -3 143 -3 142 -137 3 -138 3 0 -146z"/>
<path d="M6770 9445 l0 -145 140 0 141 0 -3 143 -3 142 -137 3 -138 3 0 -146z"/>
<path d="M6120 8972 c0 -93 2 -101 29 -138 47 -65 154 -160 194 -173 33 -11
37 -16 37 -44 -1 -18 -18 -65 -38 -105 l-37 -72 -100 100 c-55 55 -106 100
-115 100 -19 0 -190 -170 -190 -190 0 -18 279 -300 297 -300 7 0 14 -4 17 -8
3 -5 -9 -89 -25 -188 -48 -281 -35 -375 67 -484 25 -27 72 -62 103 -77 50 -25
67 -28 156 -28 93 0 105 2 167 33 77 38 130 92 166 171 39 84 40 160 2 381
-30 177 -30 185 -13 195 28 15 303 288 303 300 0 16 -183 195 -200 195 -8 0
-58 -44 -112 -97 -54 -53 -99 -95 -101 -92 -20 21 -67 136 -67 163 0 30 4 36
33 45 33 11 195 167 216 208 6 12 11 62 11 112 l0 91 -140 0 -140 0 0 -34 c0
-22 -9 -45 -26 -65 -24 -29 -30 -31 -93 -31 -61 0 -70 3 -94 28 -19 20 -27 39
-27 65 l0 37 -140 0 -140 0 0 -98z m439 -1032 c17 -107 31 -206 31 -219 0 -32
-37 -71 -66 -71 -35 0 -54 10 -68 39 -12 23 -9 53 22 243 20 120 39 214 43
210 3 -4 20 -95 38 -202z"/>
</g>
</svg>
