<?xml version="1.0" standalone="no"?>
<!DOCTYPE svg PUBLIC "-//W3C//DTD SVG 20010904//EN"
 "http://www.w3.org/TR/2001/REC-SVG-20010904/DTD/svg10.dtd">
<svg version="1.0" xmlns="http://www.w3.org/2000/svg"
 width="1400.000000pt" height="1152.000000pt" viewBox="0 0 1400.000000 1152.000000"
 preserveAspectRatio="xMidYMid meet">
<metadata>
Created by potrace 1.16, written by Peter Selinger 2001-2019
</metadata>
<g transform="translate(0.000000,1152.000000) scale(0.100000,-0.100000)"
fill="#000000" stroke="none">
<path d="M6043 10539 c-65 -19 -230 -241 -328 -443 -246 -505 -267 -1091 -61
-1683 l36 -102 0 -634 0 -634 35 -369 c19 -203 35 -382 35 -397 0 -36 -2 -33
-104 103 -109 146 -100 140 -217 140 l-99 0 0 90 c0 59 -5 100 -14 118 -8 15
-115 127 -239 250 l-224 222 -287 0 c-186 0 -294 -4 -307 -11 -31 -16 -437
-425 -459 -462 -16 -25 -20 -50 -20 -119 l0 -88 -90 0 c-49 0 -99 -5 -112 -11
-13 -6 -45 -41 -71 -79 -27 -38 -57 -77 -66 -87 -9 -10 -27 -34 -41 -53 -13
-19 -27 -37 -30 -40 -3 -3 -24 -30 -48 -61 l-42 -56 0 -501 0 -502 -72 -34
c-40 -18 -95 -44 -123 -56 -27 -12 -75 -34 -105 -48 -30 -14 -57 -26 -60 -27
-3 -1 -30 -13 -60 -27 -30 -14 -77 -36 -105 -48 -27 -12 -77 -35 -110 -50 -98
-46 -165 -76 -260 -118 -99 -44 -164 -73 -303 -138 -52 -24 -95 -44 -97 -44
-2 0 -38 -16 -82 -36 -43 -20 -94 -43 -113 -51 -19 -9 -69 -31 -110 -51 -237
-109 -256 -120 -268 -146 -9 -20 -12 -149 -12 -496 l0 -470 -58 0 c-102 0 -97
-27 -100 460 l-3 418 -26 26 c-23 23 -34 26 -87 25 -141 -4 -281 -92 -351
-221 -52 -95 -55 -124 -55 -509 0 -333 1 -360 21 -419 11 -34 31 -79 43 -99
36 -56 116 -130 171 -158 104 -53 98 -53 1222 -53 l1041 0 31 26 31 26 0 153
c0 91 -5 166 -11 182 -23 57 -34 79 -52 105 l-18 28 299 0 299 0 12 -73 c7
-39 16 -92 21 -117 4 -25 14 -79 20 -120 6 -41 17 -95 23 -120 21 -85 36 -90
257 -90 191 0 227 7 250 49 6 12 10 110 10 245 l0 226 88 0 88 0 13 -87 c7
-49 17 -106 21 -128 5 -22 14 -74 20 -115 19 -125 28 -149 63 -171 29 -18 47
-19 225 -17 l194 3 29 33 29 32 0 256 0 256 37 66 c20 37 47 84 60 104 12 21
23 42 23 48 0 5 5 10 10 10 6 0 10 6 10 13 0 6 5 19 10 27 10 17 18 10 80 -70
19 -25 39 -50 45 -56 5 -6 28 -34 50 -62 22 -28 49 -53 60 -56 11 -3 69 -6
128 -6 107 0 109 1 138 29 l29 29 1 939 1 938 114 -1210 c122 -1299 116 -1254
177 -1299 27 -20 41 -21 265 -21 264 0 285 4 319 68 17 30 18 97 21 1015 l2
982 185 0 c102 0 185 -1 186 -2 1 -2 29 -444 63 -983 68 -1070 63 -1026 129
-1062 28 -16 61 -18 267 -18 262 0 270 2 310 68 19 31 20 58 20 1013 l0 982
148 4 147 4 230 132 230 132 7 -56 c15 -114 96 -234 193 -285 l45 -24 0 -935
c0 -1040 -5 -969 68 -990 58 -16 343 -13 384 4 40 17 58 62 58 146 0 28 7 109
16 178 8 70 13 134 11 144 -3 10 -1 21 4 24 5 3 9 33 9 67 0 34 3 86 6 115 l7
52 71 0 c85 0 131 20 158 71 14 27 18 56 18 146 l0 113 50 0 c28 0 50 -3 50
-7 1 -13 8 -113 20 -253 5 -74 17 -229 25 -345 29 -388 31 -413 44 -429 7 -9
30 -20 50 -26 50 -14 340 -13 381 1 42 15 60 58 60 143 l0 64 133 4 c144 3
169 11 204 65 17 25 18 69 21 525 l3 498 98 0 98 0 6 -112 c3 -72 12 -130 23
-158 34 -88 103 -159 184 -190 48 -18 49 -19 54 -75 3 -28 10 -88 16 -135 6
-47 17 -141 25 -210 25 -220 32 -238 90 -260 38 -15 268 -13 283 2 7 7 12 9
12 5 0 -4 9 -3 21 3 44 24 49 61 49 355 0 151 3 275 6 275 3 0 18 -7 32 -15
15 -8 45 -21 67 -28 47 -16 51 -27 61 -168 3 -54 11 -102 15 -105 5 -3 7 -9 4
-14 -3 -5 1 -50 10 -102 8 -51 17 -136 21 -188 12 -174 31 -190 223 -190 125
0 152 5 189 38 l22 19 0 709 1 709 49 34 c105 71 205 205 245 329 l17 52 89 0
c56 0 89 4 89 11 0 5 5 7 10 4 6 -4 45 10 86 31 130 65 211 177 233 321 17
112 14 366 -4 410 -9 21 -19 40 -23 43 -4 3 -54 67 -110 142 l-102 137 0 155
c0 85 -4 166 -10 180 -20 53 -61 66 -207 66 -220 0 -215 9 -211 -360 l3 -270
83 -83 82 -82 0 -98 0 -97 -160 0 c-125 0 -160 3 -160 13 0 27 -54 65 -105 72
-27 5 -54 9 -60 11 -19 4 -130 26 -145 29 -65 10 -98 18 -115 25 -11 5 -50 14
-87 21 l-67 12 -3 381 -4 381 -26 73 c-38 104 -83 176 -158 252 -73 73 -147
120 -248 158 -65 25 -77 26 -344 32 l-276 5 36 100 37 100 3 331 3 330 -27 25
c-25 23 -30 24 -185 24 l-160 0 -52 -55 c-29 -31 -83 -91 -122 -135 -38 -43
-77 -86 -85 -95 -67 -72 -167 -187 -179 -202 -7 -11 -42 -49 -77 -85 -35 -36
-64 -70 -64 -75 0 -4 -146 -8 -325 -8 -301 0 -326 1 -332 18 -4 9 -23 44 -43
77 -21 33 -66 107 -102 165 -35 58 -82 137 -103 175 -35 63 -155 260 -209 343
-13 20 -34 36 -56 42 -54 15 -255 12 -295 -4 -58 -25 -58 -22 -84 -406 -6 -85
-16 -212 -22 -282 l-12 -128 -249 0 -248 0 0 694 0 694 25 65 c66 176 125 435
145 636 45 458 -71 935 -316 1304 -111 166 -202 249 -257 232 -7 -2 -24 -6
-39 -9 -38 -9 -76 -49 -87 -94 -5 -20 -12 -93 -15 -162 -10 -208 -71 -557
-167 -952 l-51 -208 -282 0 -282 0 -53 218 c-101 423 -156 737 -169 981 -8
146 -18 175 -65 205 -31 19 -86 26 -124 15z m1543 -773 c19 -55 47 -156 61
-225 25 -114 27 -146 28 -346 0 -191 -3 -235 -23 -334 -41 -203 -29 -205 -166
24 -78 130 -128 203 -146 213 l-27 16 29 110 c33 130 122 564 140 685 l12 84
29 -64 c15 -35 44 -109 63 -163z m-1593 151 c11 -92 77 -416 123 -609 l45
-186 -35 -34 c-19 -18 -84 -115 -145 -216 -60 -101 -111 -180 -114 -175 -10
17 -47 192 -58 278 -17 129 -6 433 20 555 36 172 128 440 151 440 4 0 10 -24
13 -53z m1344 -1352 l162 -270 1 -607 0 -606 -229 -399 -228 -398 -304 -2
-304 -3 -227 399 -228 399 0 608 0 608 163 273 162 273 434 -3 435 -2 163
-270z m1508 -1397 c126 -211 237 -393 248 -405 21 -24 41 -29 210 -48 67 -8
181 -21 252 -30 173 -22 278 -29 309 -21 14 3 50 36 82 74 31 37 89 103 129
147 40 44 112 125 161 181 49 55 134 151 188 212 l100 112 53 0 53 0 0 -217 0
-218 -40 -125 c-37 -116 -40 -134 -40 -240 l0 -115 -196 -195 c-108 -107 -202
-209 -210 -227 -11 -25 -14 -87 -14 -260 l0 -228 -187 -160 c-102 -88 -190
-161 -194 -163 -5 -2 -6 11 -3 30 5 26 40 67 155 183 90 91 149 158 149 170 0
26 -99 125 -125 125 -13 0 -74 -54 -170 -150 -180 -180 -179 -180 -274 -94
-66 61 -76 89 -36 104 69 26 145 143 145 222 l0 28 -95 0 c-90 0 -96 -1 -104
-22 -5 -13 -18 -32 -30 -42 -29 -27 -71 -12 -91 31 l-15 33 -92 0 -93 0 0 -42
c1 -76 58 -165 133 -204 21 -11 27 -21 26 -47 -1 -48 -39 -112 -67 -112 -19 0
-41 30 -131 180 -87 145 -112 180 -130 180 -26 0 -150 -75 -151 -92 0 -12 150
-268 227 -386 34 -52 50 -69 73 -74 26 -5 30 -10 30 -37 0 -17 3 -48 6 -68 6
-33 4 -38 -12 -37 -14 0 -85 99 -246 342 l-228 343 0 289 0 290 -81 118 c-77
113 -81 121 -75 160 3 23 11 105 16 182 6 77 17 230 26 340 8 110 17 237 21
283 l6 82 51 0 52 0 229 -382z m-4375 -805 l0 -648 -207 -207 -207 -208 -33
32 -33 32 0 295 1 296 97 103 97 102 73 0 73 0 -3 98 -3 97 -111 3 -112 3 -56
-52 -56 -51 0 193 0 194 182 182 183 183 57 0 58 0 0 -647z m492 460 l188
-188 0 -194 0 -194 -59 56 -60 57 -110 0 -111 0 0 -100 0 -100 67 0 68 0 102
-102 103 -103 0 -293 0 -293 -36 -36 -36 -36 -209 209 -209 209 0 647 0 648
57 0 58 0 187 -187z m2758 -193 c0 -14 -200 -912 -205 -920 -2 -3 -81 -57
-174 -120 -94 -62 -171 -118 -171 -124 0 -5 32 -59 72 -119 58 -88 76 -108 92
-105 31 6 413 264 431 291 11 17 255 1074 255 1104 0 2 54 3 121 3 l121 0 -2
-27 c-4 -51 0 -59 75 -172 l75 -113 0 -72 0 -71 -120 -180 c-66 -99 -120 -184
-120 -190 1 -11 214 -155 230 -155 5 0 15 9 22 20 7 11 16 20 19 20 3 0 35
-43 70 -96 35 -53 78 -118 96 -145 l32 -48 -57 -34 c-31 -18 -149 -86 -262
-150 l-206 -117 -189 0 c-215 0 -244 -7 -277 -70 -17 -33 -18 -84 -18 -1017
l0 -983 -55 0 c-37 0 -55 4 -55 13 0 6 -27 451 -61 987 -66 1070 -60 1017
-129 1052 -31 16 -72 18 -398 18 -394 0 -397 0 -441 -56 -21 -27 -21 -28 -21
-1020 l0 -994 -60 0 c-48 0 -60 3 -60 16 0 16 -207 2236 -213 2286 -3 26 -2
26 135 -43 76 -38 144 -69 151 -69 12 0 127 219 127 243 0 7 -52 38 -115 69
l-114 57 -119 158 -119 158 -21 224 c-12 124 -20 226 -19 228 2 1 48 -75 103
-170 82 -143 105 -175 134 -189 32 -16 75 -18 460 -18 396 0 428 1 460 19 30
16 61 64 210 325 l175 306 68 0 c38 0 67 -4 67 -10z m3552 -279 c76 -30 161
-108 201 -185 l32 -61 3 -335 3 -335 -115 3 -115 3 -3 207 c-3 200 -4 209 -30
264 -29 63 -95 139 -149 173 -58 37 -128 56 -234 63 l-100 7 -5 86 c-3 59 -11
94 -23 113 l-18 28 248 -4 c230 -3 252 -5 305 -27z m-7482 -547 l0 -527 85
-86 85 -87 0 -126 0 -127 -45 -92 -45 -93 0 -169 0 -169 -152 -304 -152 -304
-48 0 -48 0 0 1165 0 1165 83 107 c45 60 93 123 105 141 22 29 28 32 78 32
l54 0 0 -526z m1705 469 c22 -31 68 -92 103 -136 l62 -80 0 -1254 c0 -794 -4
-1253 -10 -1253 -5 0 -53 55 -108 123 l-98 122 38 73 38 73 0 534 0 533 -85
171 -85 172 0 489 0 490 53 0 c52 -1 52 -1 92 -57z m4985 -488 l0 -345 -22 0
c-14 0 -45 22 -80 57 l-58 57 0 212 0 212 71 76 c39 42 75 76 80 76 5 0 9
-147 9 -345z m2280 72 l0 -133 120 -159 120 -160 0 -173 c0 -155 -2 -177 -21
-217 -25 -54 -89 -111 -138 -125 -20 -5 -132 -10 -248 -10 l-213 0 0 64 0 65
188 3 c182 3 190 4 225 28 69 47 77 75 77 270 l0 172 -80 82 -80 82 0 172 0
172 25 0 25 0 0 -133z m-1825 -3 c64 -30 70 -49 73 -241 l4 -173 -126 0 -126
0 0 215 0 215 71 0 c44 0 84 -6 104 -16z m-5955 -912 l0 -162 40 -80 40 -80 0
-150 c0 -136 -2 -154 -22 -195 l-23 -44 -67 -1 -68 0 -79 118 c-57 86 -88 122
-110 132 -30 12 -31 14 -31 81 0 52 3 69 14 69 29 0 69 46 111 131 l45 89 0
160 0 160 -95 0 -95 0 0 -120 c0 -109 -2 -125 -25 -170 -32 -64 -62 -68 -91
-12 -15 29 -20 65 -24 167 l-5 130 -97 3 -98 3 0 -158 1 -158 52 -100 c41 -79
59 -103 84 -115 32 -15 33 -16 33 -83 0 -62 -2 -68 -23 -76 -31 -12 -60 -48
-132 -160 l-59 -91 -68 0 -68 0 -25 50 c-23 46 -25 60 -25 189 l0 140 45 92
45 93 0 160 0 161 202 202 203 203 207 -207 208 -208 0 -163z m5923 318 l562
-5 150 -32 c83 -17 238 -48 345 -68 107 -20 201 -39 208 -41 9 -3 12 -224 12
-1064 l0 -1060 -30 0 c-22 0 -30 5 -30 18 0 9 -7 78 -15 152 -8 74 -22 200
-30 280 -24 225 -25 229 -49 257 -18 20 -36 28 -86 34 -97 14 -154 56 -196
144 -23 49 -24 57 -24 323 l0 272 -95 0 -95 0 0 -85 0 -85 -423 0 -423 0 -210
-126 c-115 -69 -220 -136 -234 -150 l-25 -24 -3 -506 -3 -505 -67 3 -67 3 -6
80 c-4 44 -14 168 -22 275 -9 107 -21 256 -27 330 -26 337 -25 332 -55 357
l-27 24 -289 -3 c-281 -3 -289 -4 -310 -25 -24 -24 -33 -94 -63 -518 -9 -121
-22 -289 -28 -372 l-12 -153 -68 0 -68 0 0 970 c0 544 4 970 9 970 4 0 12 -27
15 -61 9 -79 19 -103 66 -165 58 -74 113 -99 220 -99 97 0 136 15 195 73 52
52 77 105 90 188 l10 70 90 77 c50 41 166 141 259 222 l170 146 58 -58 59 -58
562 -5z m-1407 0 l46 0 -7 -62 c-3 -35 -10 -88 -15 -118 -5 -30 -12 -89 -16
-130 -8 -89 -24 -124 -64 -145 -27 -14 -33 -14 -60 0 -42 22 -56 55 -69 170
-16 144 -28 226 -36 256 -5 21 -2 27 19 37 15 6 34 27 43 47 l16 34 48 -44
c43 -40 53 -45 95 -45z m-4223 -215 l47 -95 0 -477 0 -477 -142 -251 c-78
-137 -155 -270 -170 -294 l-28 -45 0 -228 0 -228 -79 0 -78 0 -36 221 -36 220
57 57 c32 31 69 80 82 107 23 47 25 62 28 263 l4 212 84 0 c128 0 139 8 202
133 l52 105 0 206 0 207 -40 75 -40 76 0 139 c0 137 6 168 35 169 6 0 32 -43
58 -95z m-1993 -515 l0 -380 -347 1 c-343 0 -351 1 -538 32 l-190 32 -3 103
-3 103 78 35 c43 20 103 47 133 61 30 14 150 68 265 120 116 53 246 112 290
132 44 21 107 50 140 65 33 15 83 38 110 51 28 13 53 24 58 24 4 1 7 -170 7
-379z m9110 163 c-1 -5 -7 -19 -15 -33 l-14 -25 -1 33 c0 22 5 32 15 32 8 0
15 -3 15 -7z m-10390 -650 l0 -288 -122 -122 -123 -123 -5 -278 -5 -277 -73
-3 -72 -3 2 601 3 601 100 45 c195 88 250 114 265 123 8 6 18 10 23 10 4 1 7
-128 7 -286z m2565 -183 l95 0 2 162 3 163 33 -51 32 -51 0 -171 c0 -94 -5
-194 -11 -222 -17 -81 -82 -140 -154 -140 -45 0 -102 37 -130 83 -25 43 -25
47 -25 252 l0 208 28 43 27 44 3 -160 2 -160 95 0z m6965 -230 l0 -480 -29 0
c-35 0 -35 -1 -56 185 -8 71 -19 155 -24 185 -5 30 -15 96 -21 145 -7 50 -17
98 -24 106 -16 23 -51 39 -81 39 -34 0 -73 21 -110 60 -29 30 -30 35 -33 136
l-4 104 191 0 191 0 0 -480z m-7419 402 l99 -4 0 -184 c0 -202 14 -272 66
-341 28 -37 29 -43 8 -43 -8 0 -29 -13 -45 -29 l-29 -29 0 -227 0 -226 -77 3
-77 3 -37 222 c-31 191 -46 250 -72 275 -1 2 -222 5 -491 8 l-490 5 -11 65
c-22 139 -111 255 -244 319 -73 34 -78 35 -223 39 l-148 4 0 -101 0 -101 108
0 c129 0 182 -15 237 -68 55 -53 77 -111 84 -218 7 -105 23 -134 74 -134 79 0
174 -50 218 -114 28 -42 49 -115 49 -172 l0 -34 -585 0 -585 0 0 227 0 227
130 131 130 132 0 171 c0 95 3 172 8 172 4 0 88 -14 187 -30 176 -29 188 -30
533 -30 l352 0 0 -189 0 -189 31 -26 c30 -26 33 -26 190 -26 132 0 164 3 185
17 18 11 66 98 155 276 130 258 130 259 151 241 16 -15 40 -20 119 -22z
m-3049 -389 c3 -345 4 -359 25 -399 26 -49 90 -108 139 -129 21 -8 66 -15 105
-15 l69 0 0 -75 0 -75 -130 0 c-153 0 -214 17 -272 77 -75 79 -73 66 -73 468
l0 360 27 47 c25 42 82 98 100 98 4 0 8 -161 10 -357z m9418 -13 l0 -330 -40
0 -40 0 0 308 0 307 38 22 c20 12 38 22 40 23 1 0 2 -148 2 -330z"/>
<path d="M6210 8465 l0 -145 140 0 141 0 -3 143 -3 142 -137 3 -138 3 0 -146z"/>
<path d="M6990 8465 l0 -145 140 0 141 0 -3 143 -3 142 -137 3 -138 3 0 -146z"/>
<path d="M6340 7992 c0 -93 2 -101 29 -138 47 -65 154 -160 194 -173 33 -11
37 -16 37 -44 -1 -18 -18 -65 -38 -105 l-37 -72 -100 100 c-55 55 -106 100
-115 100 -19 0 -190 -170 -190 -190 0 -18 279 -300 297 -300 7 0 14 -4 17 -8
3 -5 -9 -89 -25 -188 -48 -281 -35 -375 67 -484 25 -27 72 -62 103 -77 50 -25
67 -28 156 -28 93 0 105 2 167 33 77 38 130 92 166 171 39 84 40 160 2 381
-30 177 -30 185 -13 195 28 15 303 288 303 300 0 16 -183 195 -200 195 -8 0
-58 -44 -112 -97 -54 -53 -99 -95 -101 -92 -20 21 -67 136 -67 163 0 30 4 36
33 45 33 11 195 167 216 208 6 12 11 62 11 112 l0 91 -140 0 -140 0 0 -34 c0
-22 -9 -45 -26 -65 -24 -29 -30 -31 -93 -31 -61 0 -70 3 -94 28 -19 20 -27 39
-27 65 l0 37 -140 0 -140 0 0 -98z m439 -1032 c17 -107 31 -206 31 -219 0 -32
-37 -71 -66 -71 -35 0 -54 10 -68 39 -12 23 -9 53 22 243 20 120 39 214 43
210 3 -4 20 -95 38 -202z"/>
<path d="M8577 7003 c-4 -3 -7 -84 -7 -180 l0 -173 47 -95 c39 -78 52 -95 70
-95 31 0 153 61 153 77 0 7 -16 45 -35 86 l-35 74 0 156 0 157 -93 0 c-52 0
-97 -3 -100 -7z"/>
<path d="M10216 6835 c-3 -9 -6 -78 -6 -154 l0 -137 -65 -64 c-36 -35 -65 -72
-65 -81 0 -21 109 -129 131 -129 9 0 55 40 102 89 62 64 87 98 92 122 3 19 5
108 3 199 l-3 165 -91 3 c-77 2 -93 0 -98 -13z"/>
<path d="M8904 6427 c-2 -8 -4 -52 -2 -98 l3 -84 95 0 95 0 0 95 0 95 -93 3
c-71 2 -94 0 -98 -11z"/>
<path d="M9720 6255 l0 -95 100 0 100 0 0 95 0 95 -100 0 -100 0 0 -95z"/>
<path d="M4130 5830 l0 -101 98 3 97 3 3 98 3 97 -101 0 -100 0 0 -100z"/>
<path d="M4810 5830 l0 -101 98 3 97 3 3 98 3 97 -101 0 -100 0 0 -100z"/>
<path d="M9889 4713 c-32 -31 -59 -64 -59 -73 0 -9 11 -27 25 -40 23 -22 25
-30 25 -122 l0 -98 -212 0 -213 0 -63 70 c-42 47 -71 70 -86 70 -28 0 -126
-98 -126 -126 0 -12 36 -56 94 -112 l93 -92 327 0 328 0 29 29 29 29 0 207 0
206 -51 55 c-29 30 -58 54 -66 54 -8 0 -41 -25 -74 -57z"/>
<path d="M2450 2555 l0 -65 70 0 70 0 0 -480 0 -480 -54 0 c-29 0 -67 -3 -83
-6 -48 -9 -53 17 -53 265 0 247 -8 289 -67 346 -55 54 -114 68 -252 63 -122
-5 -212 -29 -243 -66 -9 -9 -21 -57 -28 -106 -14 -103 -13 -106 67 -106 l51 0
14 62 c13 60 14 63 53 74 56 17 139 17 181 -1 43 -18 73 -79 74 -146 l0 -47
-137 -5 c-186 -6 -271 -35 -327 -110 -22 -30 -34 -145 -22 -212 16 -84 99
-136 227 -143 102 -5 151 12 223 78 33 31 46 38 46 26 0 -30 29 -75 58 -90 23
-12 72 -13 280 -9 l252 6 0 64 0 63 -55 0 -55 0 0 115 0 115 54 0 54 0 92
-112 92 -113 -46 -3 -46 -3 0 -65 0 -64 365 0 365 0 0 65 0 65 -65 0 -65 0 0
183 c0 156 3 188 19 223 41 89 132 143 223 131 54 -7 88 -33 116 -87 21 -42
22 -56 22 -247 l0 -203 -65 0 -65 0 0 -65 0 -65 210 0 210 0 0 65 0 65 -70 0
-70 0 0 233 c0 268 -7 305 -72 368 -50 48 -112 69 -207 69 -94 0 -162 -23
-213 -71 l-38 -36 0 264 0 263 -140 0 -140 0 0 -65 0 -65 65 0 65 0 0 -480 0
-480 -84 0 -84 0 -117 144 c-65 79 -118 147 -117 151 0 4 41 58 92 121 l92
114 59 0 59 0 0 65 0 65 -190 0 -190 0 0 -64 0 -65 45 -3 45 -3 -76 -92 -75
-93 -55 0 -54 0 0 375 0 375 -145 0 -145 0 0 -65z m-247 -805 l47 0 0 -35 c0
-163 -243 -267 -326 -140 -19 28 -15 95 7 121 29 35 148 69 204 58 11 -2 41
-4 68 -4z"/>
<path d="M12400 2555 l0 -65 70 0 70 0 0 -480 0 -480 -65 0 -65 0 0 -65 0 -65
195 0 195 0 0 65 0 65 -55 0 -55 0 0 115 0 115 54 0 54 0 92 -112 92 -113 -46
-3 -46 -3 0 -65 0 -64 195 0 195 0 0 65 0 65 -54 0 -54 0 -117 144 c-65 79
-118 147 -117 151 0 4 41 58 92 121 l92 114 59 0 59 0 0 65 0 65 -190 0 -190
0 0 -64 0 -65 45 -3 45 -3 -76 -92 -75 -93 -55 0 -54 0 0 375 0 375 -145 0
-145 0 0 -65z"/>
<path d="M1013 2545 c-126 -34 -224 -105 -304 -218 -71 -102 -101 -200 -102
-342 -1 -62 4 -134 12 -165 49 -203 202 -365 392 -415 71 -19 258 -19 329 0
191 51 344 203 395 395 90 332 -85 665 -391 745 -73 19 -260 19 -331 0z m277
-146 c176 -40 300 -217 300 -429 -1 -134 -37 -232 -121 -325 -85 -92 -210
-133 -351 -113 -285 39 -437 384 -294 666 87 172 262 247 466 201z"/>
<path d="M7160 2485 l0 -65 70 0 70 0 0 -445 0 -445 -70 0 -70 0 0 -65 0 -65
318 0 c244 0 331 4 380 15 191 45 336 191 387 390 20 77 19 260 0 344 -33 139
-133 271 -253 334 -116 61 -158 67 -514 67 l-318 0 0 -65z m683 -91 c153 -60
244 -199 254 -389 9 -162 -35 -285 -134 -375 -86 -79 -136 -93 -340 -98 l-173
-4 0 447 0 447 173 -4 c136 -4 182 -9 220 -24z"/>
<path d="M10210 2486 l0 -66 70 0 70 0 0 -445 0 -445 -70 0 -70 0 0 -65 0 -65
245 0 245 0 0 65 0 65 -100 0 -100 0 0 144 0 144 173 4 c162 3 175 5 229 30
119 55 184 147 198 278 10 93 -5 182 -42 252 -36 69 -72 101 -148 137 l-55 26
-322 3 -323 3 0 -65z m618 -102 c47 -24 61 -38 85 -84 26 -49 28 -62 25 -126
-7 -101 -35 -150 -111 -188 -52 -26 -69 -29 -192 -34 l-135 -5 0 238 0 238
136 -5 c124 -5 140 -8 192 -34z"/>
<path d="M6410 2320 l0 -130 -65 0 -65 0 0 -60 0 -60 65 0 65 0 0 -257 c0
-230 2 -262 19 -298 41 -88 109 -125 233 -125 148 1 227 64 252 203 6 34 5 38
-21 48 -15 6 -43 12 -61 13 -30 1 -35 -3 -47 -38 -19 -55 -54 -86 -102 -93
-49 -6 -78 8 -103 50 -18 29 -20 52 -20 265 l0 232 150 0 150 0 0 60 0 60
-150 0 -150 0 0 130 0 130 -75 0 -75 0 0 -130z"/>
<path d="M5390 2189 c-14 -6 -40 -24 -57 -42 l-33 -31 0 37 0 37 -145 0 -146
0 3 -62 3 -63 68 -3 67 -3 0 -264 0 -265 -110 0 -110 0 0 330 0 330 -155 0
-155 0 0 -65 0 -65 80 0 80 0 0 -177 c0 -165 -2 -182 -24 -228 -69 -149 -241
-181 -330 -61 -20 26 -21 43 -24 312 l-3 284 -145 0 -144 0 0 -65 0 -65 70 0
70 0 0 -226 c0 -131 5 -243 11 -269 15 -58 71 -122 133 -151 41 -19 68 -24
136 -24 96 0 158 23 218 78 l32 31 0 -50 0 -49 350 0 350 0 0 65 0 65 -91 0
-90 0 3 208 c3 193 5 210 26 250 28 53 75 83 122 80 37 -3 44 -15 65 -112 l6
-29 61 7 c34 3 63 7 64 9 4 3 -24 197 -31 215 -13 35 -162 56 -225 31z"/>
<path d="M5835 2182 c-108 -37 -154 -98 -155 -204 0 -143 57 -188 297 -233
136 -26 183 -55 183 -115 -1 -84 -158 -135 -294 -96 l-58 17 6 48 c6 45 4 49
-16 55 -13 3 -42 6 -64 6 -47 0 -49 -3 -60 -130 l-7 -67 44 -21 c83 -40 164
-54 283 -50 96 3 119 7 171 31 114 53 149 108 143 228 -6 140 -41 164 -331
224 -94 20 -137 51 -137 99 0 80 124 121 243 80 49 -17 52 -21 63 -97 l7 -49
61 7 c33 4 63 9 64 10 9 8 -19 200 -30 211 -7 7 -48 24 -90 38 -95 32 -243 36
-323 8z"/>
<path d="M8512 2182 c-215 -77 -311 -386 -190 -615 37 -69 82 -111 158 -146
50 -24 66 -26 180 -26 122 0 128 1 192 33 104 51 167 136 193 256 l12 61 8
-50 c19 -125 79 -217 176 -270 46 -25 68 -30 145 -33 119 -5 176 13 240 75
l47 45 -6 -85 c-10 -148 -69 -238 -173 -267 -100 -28 -224 18 -277 103 -17 26
-35 47 -42 47 -7 0 -33 -9 -59 -20 -51 -23 -56 -37 -32 -94 23 -55 81 -111
148 -142 59 -27 71 -29 193 -29 127 0 132 1 197 33 102 50 164 136 188 262 5
29 10 207 10 396 l0 344 60 0 60 0 0 65 0 65 -135 0 -135 0 0 -47 0 -47 -32
31 c-56 53 -94 66 -200 71 -115 5 -175 -11 -236 -64 -50 -42 -119 -174 -128
-244 -8 -59 -19 -57 -26 3 -12 107 -105 235 -201 278 -73 32 -257 38 -335 11z
m223 -123 c62 -17 129 -90 150 -164 56 -191 -54 -375 -226 -375 -132 0 -230
114 -230 269 0 96 23 164 75 215 61 61 140 80 231 55z m786 0 c47 -15 104 -61
126 -102 9 -18 18 -67 21 -117 7 -121 -14 -187 -77 -250 -94 -94 -224 -93
-308 3 -42 48 -58 98 -58 187 0 205 131 328 296 279z"/>
<path d="M11282 2184 c-59 -16 -103 -36 -119 -56 -6 -7 -16 -53 -23 -102 -14
-103 -13 -106 67 -106 l51 0 14 62 c13 60 14 63 53 74 56 17 139 17 181 -1 43
-18 73 -79 74 -146 l0 -47 -137 -5 c-186 -6 -271 -35 -327 -110 -22 -30 -34
-145 -22 -212 16 -84 99 -136 227 -143 102 -5 151 12 223 78 33 31 46 38 46
26 0 -30 29 -75 58 -90 22 -11 81 -13 325 -8 l297 5 0 63 0 64 -91 0 -90 0 3
208 c3 193 5 210 26 250 28 53 75 83 122 80 37 -3 44 -15 65 -112 l6 -29 61 7
c34 3 63 7 64 9 4 3 -24 197 -31 215 -13 36 -157 56 -222 31 -15 -5 -43 -24
-60 -42 l-33 -31 0 37 0 37 -145 0 -146 0 3 -62 3 -63 68 -3 67 -3 0 -264 0
-265 -62 0 c-35 0 -69 -4 -77 -9 -21 -13 -47 -2 -60 25 -7 16 -11 103 -11 243
0 247 -8 289 -67 346 -19 19 -55 41 -81 49 -58 20 -226 20 -300 0z m251 -434
l47 0 0 -35 c0 -163 -243 -267 -326 -140 -19 28 -15 95 7 121 29 35 148 69
204 58 11 -2 41 -4 68 -4z"/>
</g>
</svg>
