<?xml version="1.0" standalone="no"?>
<!DOCTYPE svg PUBLIC "-//W3C//DTD SVG 20010904//EN"
 "http://www.w3.org/TR/2001/REC-SVG-20010904/DTD/svg10.dtd">
<svg version="1.0" xmlns="http://www.w3.org/2000/svg"
 width="1400.000000pt" height="1152.000000pt" viewBox="0 0 1400.000000 1152.000000"
 preserveAspectRatio="xMidYMid meet">
<metadata>
Created by potrace 1.16, written by Peter Selinger 2001-2019
</metadata>
<g transform="translate(0.000000,1152.000000) scale(0.100000,-0.100000)"
fill="#000000" stroke="none">
<path d="M6043 10539 c-65 -19 -230 -241 -328 -443 -246 -505 -267 -1091 -61
-1683 l36 -102 0 -634 0 -634 35 -369 c19 -203 35 -382 35 -397 0 -36 -2 -33
-104 103 -109 146 -100 140 -217 140 l-99 0 0 90 c0 59 -5 100 -14 118 -8 15
-115 127 -239 250 l-224 222 -287 0 c-186 0 -294 -4 -307 -11 -31 -16 -437
-425 -459 -462 -16 -25 -20 -50 -20 -119 l0 -88 -90 0 c-49 0 -99 -5 -112 -11
-13 -6 -45 -41 -71 -79 -27 -38 -57 -77 -66 -87 -9 -10 -27 -34 -41 -53 -13
-19 -27 -37 -30 -40 -3 -3 -24 -30 -48 -61 l-42 -56 0 -501 0 -502 -72 -34
c-40 -18 -95 -44 -123 -56 -27 -12 -75 -34 -105 -48 -30 -14 -57 -26 -60 -27
-3 -1 -30 -13 -60 -27 -30 -14 -77 -36 -105 -48 -27 -12 -77 -35 -110 -50 -98
-46 -165 -76 -260 -118 -99 -44 -164 -73 -303 -138 -52 -24 -95 -44 -97 -44
-2 0 -38 -16 -82 -36 -43 -20 -94 -43 -113 -51 -19 -9 -69 -31 -110 -51 -237
-109 -256 -120 -268 -146 -9 -20 -12 -149 -12 -496 l0 -470 -58 0 c-102 0 -97
-27 -100 460 l-3 418 -26 26 c-23 23 -34 26 -87 25 -141 -4 -281 -92 -351
-221 -52 -95 -55 -124 -55 -509 0 -333 1 -360 21 -419 11 -34 31 -79 43 -99
36 -56 116 -130 171 -158 104 -53 98 -53 1222 -53 l1041 0 31 26 31 26 0 153
c0 91 -5 166 -11 182 -23 57 -34 79 -52 105 l-18 28 299 0 299 0 12 -73 c7
-39 16 -92 21 -117 4 -25 14 -79 20 -120 6 -41 17 -95 23 -120 21 -85 36 -90
257 -90 191 0 227 7 250 49 6 12 10 110 10 245 l0 226 88 0 88 0 13 -87 c7
-49 17 -106 21 -128 5 -22 14 -74 20 -115 19 -125 28 -149 63 -171 29 -18 47
-19 225 -17 l194 3 29 33 29 32 0 256 0 256 37 66 c20 37 47 84 60 104 12 21
23 42 23 48 0 5 5 10 10 10 6 0 10 6 10 13 0 6 5 19 10 27 10 17 18 10 80 -70
19 -25 39 -50 45 -56 5 -6 28 -34 50 -62 22 -28 49 -53 60 -56 11 -3 69 -6
128 -6 107 0 109 1 138 29 l29 29 1 939 1 938 114 -1210 c122 -1299 116 -1254
177 -1299 27 -20 41 -21 265 -21 264 0 285 4 319 68 17 30 18 97 21 1015 l2
982 185 0 c102 0 185 -1 186 -2 1 -2 29 -444 63 -983 68 -1070 63 -1026 129
-1062 28 -16 61 -18 267 -18 262 0 270 2 310 68 19 31 20 58 20 1013 l0 982
148 4 147 4 230 132 230 132 7 -56 c15 -114 96 -234 193 -285 l45 -24 0 -935
c0 -1040 -5 -969 68 -990 58 -16 343 -13 384 4 40 17 58 62 58 146 0 28 7 109
16 178 8 70 13 134 11 144 -3 10 -1 21 4 24 5 3 9 33 9 67 0 34 3 86 6 115 l7
52 71 0 c85 0 131 20 158 71 14 27 18 56 18 146 l0 113 50 0 c28 0 50 -3 50
-7 1 -13 8 -113 20 -253 5 -74 17 -229 25 -345 29 -388 31 -413 44 -429 7 -9
30 -20 50 -26 50 -14 340 -13 381 1 42 15 60 58 60 143 l0 64 133 4 c144 3
169 11 204 65 17 25 18 69 21 525 l3 498 98 0 98 0 6 -112 c3 -72 12 -130 23
-158 34 -88 103 -159 184 -190 48 -18 49 -19 54 -75 3 -28 10 -88 16 -135 6
-47 17 -141 25 -210 25 -220 32 -238 90 -260 38 -15 268 -13 283 2 7 7 12 9
12 5 0 -4 9 -3 21 3 44 24 49 61 49 355 0 151 3 275 6 275 3 0 18 -7 32 -15
15 -8 45 -21 67 -28 47 -16 51 -27 61 -168 3 -54 11 -102 15 -105 5 -3 7 -9 4
-14 -3 -5 1 -50 10 -102 8 -51 17 -136 21 -188 12 -174 31 -190 223 -190 125
0 152 5 189 38 l22 19 0 709 1 709 49 34 c105 71 205 205 245 329 l17 52 89 0
c56 0 89 4 89 11 0 5 5 7 10 4 6 -4 45 10 86 31 130 65 211 177 233 321 17
112 14 366 -4 410 -9 21 -19 40 -23 43 -4 3 -54 67 -110 142 l-102 137 0 155
c0 85 -4 166 -10 180 -20 53 -61 66 -207 66 -220 0 -215 9 -211 -360 l3 -270
83 -83 82 -82 0 -98 0 -97 -160 0 c-125 0 -160 3 -160 13 0 27 -54 65 -105 72
-27 5 -54 9 -60 11 -19 4 -130 26 -145 29 -65 10 -98 18 -115 25 -11 5 -50 14
-87 21 l-67 12 -3 381 -4 381 -26 73 c-38 104 -83 176 -158 252 -73 73 -147
120 -248 158 -65 25 -77 26 -344 32 l-276 5 36 100 37 100 3 331 3 330 -27 25
c-25 23 -30 24 -185 24 l-160 0 -52 -55 c-29 -31 -83 -91 -122 -135 -38 -43
-77 -86 -85 -95 -67 -72 -167 -187 -179 -202 -7 -11 -42 -49 -77 -85 -35 -36
-64 -70 -64 -75 0 -4 -146 -8 -325 -8 -301 0 -326 1 -332 18 -4 9 -23 44 -43
77 -21 33 -66 107 -102 165 -35 58 -82 137 -103 175 -35 63 -155 260 -209 343
-13 20 -34 36 -56 42 -54 15 -255 12 -295 -4 -58 -25 -58 -22 -84 -406 -6 -85
-16 -212 -22 -282 l-12 -128 -249 0 -248 0 0 694 0 694 25 65 c66 176 125 435
145 636 45 458 -71 935 -316 1304 -111 166 -202 249 -257 232 -7 -2 -24 -6
-39 -9 -38 -9 -76 -49 -87 -94 -5 -20 -12 -93 -15 -162 -10 -208 -71 -557
-167 -952 l-51 -208 -282 0 -282 0 -53 218 c-101 423 -156 737 -169 981 -8
146 -18 175 -65 205 -31 19 -86 26 -124 15z m1543 -773 c19 -55 47 -156 61
-225 25 -114 27 -146 28 -346 0 -191 -3 -235 -23 -334 -41 -203 -29 -205 -166
24 -78 130 -128 203 -146 213 l-27 16 29 110 c33 130 122 564 140 685 l12 84
29 -64 c15 -35 44 -109 63 -163z m-1593 151 c11 -92 77 -416 123 -609 l45
-186 -35 -34 c-19 -18 -84 -115 -145 -216 -60 -101 -111 -180 -114 -175 -10
17 -47 192 -58 278 -17 129 -6 433 20 555 36 172 128 440 151 440 4 0 10 -24
13 -53z m1344 -1352 l162 -270 1 -607 0 -606 -229 -399 -228 -398 -304 -2
-304 -3 -227 399 -228 399 0 608 0 608 163 273 162 273 434 -3 435 -2 163
-270z m383 -1935 c0 -14 -200 -912 -205 -920 -2 -3 -81 -57 -174 -120 -94 -62
-171 -118 -171 -124 0 -5 32 -59 72 -119 58 -88 76 -108 92 -105 31 6 413 264
431 291 11 17 255 1074 255 1104 0 2 54 3 121 3 l121 0 -2 -27 c-4 -51 0 -59
75 -172 l75 -113 0 -72 0 -71 -120 -180 c-66 -99 -120 -184 -120 -190 1 -11
214 -155 230 -155 5 0 15 9 22 20 7 11 16 20 19 20 3 0 35 -43 70 -96 35 -53
78 -118 96 -145 l32 -48 -57 -34 c-31 -18 -149 -86 -262 -150 l-206 -117 -189
0 c-215 0 -244 -7 -277 -70 -17 -33 -18 -84 -18 -1017 l0 -983 -55 0 c-37 0
-55 4 -55 13 0 6 -27 451 -61 987 -66 1070 -60 1017 -129 1052 -31 16 -72 18
-398 18 -394 0 -397 0 -441 -56 -21 -27 -21 -28 -21 -1020 l0 -994 -60 0 c-48
0 -60 3 -60 16 0 16 -207 2236 -213 2286 -3 26 -2 26 135 -43 76 -38 144 -69
151 -69 12 0 127 219 127 243 0 7 -52 38 -115 69 l-114 57 -119 158 -119 158
-21 224 c-12 124 -20 226 -19 228 2 1 48 -75 103 -170 82 -143 105 -175 134
-189 32 -16 75 -18 460 -18 396 0 428 1 460 19 30 16 61 64 210 325 l175 306
68 0 c38 0 67 -4 67 -10z m3552 -279 c76 -30 161 -108 201 -185 l32 -61 3
-335 3 -335 -115 3 -115 3 -3 207 c-3 200 -4 209 -30 264 -29 63 -95 139 -149
173 -58 37 -128 56 -234 63 l-100 7 -5 86 c-3 59 -11 94 -23 113 l-18 28 248
-4 c230 -3 252 -5 305 -27z m-792 -566 l0 -345 -22 0 c-14 0 -45 22 -80 57
l-58 57 0 212 0 212 71 76 c39 42 75 76 80 76 5 0 9 -147 9 -345z m455 69 c64
-30 70 -49 73 -241 l4 -173 -126 0 -126 0 0 215 0 215 71 0 c44 0 84 -6 104
-16z m1445 -1175 c-7 -11 -14 -18 -17 -15 -8 8 5 36 17 36 7 0 7 -6 0 -21z
m-1900 -1049 l0 -330 -40 0 -40 0 0 308 0 307 38 22 c20 12 38 22 40 23 1 0 2
-148 2 -330z"/>
<path d="M6210 8465 l0 -145 140 0 141 0 -3 143 -3 142 -137 3 -138 3 0 -146z"/>
<path d="M6990 8465 l0 -145 140 0 141 0 -3 143 -3 142 -137 3 -138 3 0 -146z"/>
<path d="M6340 7992 c0 -93 2 -101 29 -138 47 -65 154 -160 194 -173 33 -11
37 -16 37 -44 -1 -18 -18 -65 -38 -105 l-37 -72 -100 100 c-55 55 -106 100
-115 100 -19 0 -190 -170 -190 -190 0 -18 279 -300 297 -300 7 0 14 -4 17 -8
3 -5 -9 -89 -25 -188 -48 -281 -35 -375 67 -484 25 -27 72 -62 103 -77 50 -25
67 -28 156 -28 93 0 105 2 167 33 77 38 130 92 166 171 39 84 40 160 2 381
-30 177 -30 185 -13 195 28 15 303 288 303 300 0 16 -183 195 -200 195 -8 0
-58 -44 -112 -97 -54 -53 -99 -95 -101 -92 -20 21 -67 136 -67 163 0 30 4 36
33 45 33 11 195 167 216 208 6 12 11 62 11 112 l0 91 -140 0 -140 0 0 -34 c0
-22 -9 -45 -26 -65 -24 -29 -30 -31 -93 -31 -61 0 -70 3 -94 28 -19 20 -27 39
-27 65 l0 37 -140 0 -140 0 0 -98z m439 -1032 c17 -107 31 -206 31 -219 0 -32
-37 -71 -66 -71 -35 0 -54 10 -68 39 -12 23 -9 53 22 243 20 120 39 214 43
210 3 -4 20 -95 38 -202z"/>
<path d="M2450 2555 l0 -65 70 0 70 0 0 -480 0 -480 -54 0 c-29 0 -67 -3 -83
-6 -48 -9 -53 17 -53 265 0 247 -8 289 -67 346 -55 54 -114 68 -252 63 -122
-5 -212 -29 -243 -66 -9 -9 -21 -57 -28 -106 -14 -103 -13 -106 67 -106 l51 0
14 62 c13 60 14 63 53 74 56 17 139 17 181 -1 43 -18 73 -79 74 -146 l0 -47
-137 -5 c-186 -6 -271 -35 -327 -110 -22 -30 -34 -145 -22 -212 16 -84 99
-136 227 -143 102 -5 151 12 223 78 33 31 46 38 46 26 0 -30 29 -75 58 -90 23
-12 72 -13 280 -9 l252 6 0 64 0 63 -55 0 -55 0 0 115 0 115 54 0 54 0 92
-112 92 -113 -46 -3 -46 -3 0 -65 0 -64 365 0 365 0 0 65 0 65 -65 0 -65 0 0
183 c0 156 3 188 19 223 41 89 132 143 223 131 54 -7 88 -33 116 -87 21 -42
22 -56 22 -247 l0 -203 -65 0 -65 0 0 -65 0 -65 210 0 210 0 0 65 0 65 -70 0
-70 0 0 233 c0 268 -7 305 -72 368 -50 48 -112 69 -207 69 -94 0 -162 -23
-213 -71 l-38 -36 0 264 0 263 -140 0 -140 0 0 -65 0 -65 65 0 65 0 0 -480 0
-480 -84 0 -84 0 -117 144 c-65 79 -118 147 -117 151 0 4 41 58 92 121 l92
114 59 0 59 0 0 65 0 65 -190 0 -190 0 0 -64 0 -65 45 -3 45 -3 -76 -92 -75
-93 -55 0 -54 0 0 375 0 375 -145 0 -145 0 0 -65z m-247 -805 l47 0 0 -35 c0
-163 -243 -267 -326 -140 -19 28 -15 95 7 121 29 35 148 69 204 58 11 -2 41
-4 68 -4z"/>
<path d="M12400 2555 l0 -65 70 0 70 0 0 -480 0 -480 -65 0 -65 0 0 -65 0 -65
195 0 195 0 0 65 0 65 -55 0 -55 0 0 115 0 115 54 0 54 0 92 -112 92 -113 -46
-3 -46 -3 0 -65 0 -64 195 0 195 0 0 65 0 65 -54 0 -54 0 -117 144 c-65 79
-118 147 -117 151 0 4 41 58 92 121 l92 114 59 0 59 0 0 65 0 65 -190 0 -190
0 0 -64 0 -65 45 -3 45 -3 -76 -92 -75 -93 -55 0 -54 0 0 375 0 375 -145 0
-145 0 0 -65z"/>
<path d="M1013 2545 c-126 -34 -224 -105 -304 -218 -71 -102 -101 -200 -102
-342 -1 -62 4 -134 12 -165 49 -203 202 -365 392 -415 71 -19 258 -19 329 0
191 51 344 203 395 395 90 332 -85 665 -391 745 -73 19 -260 19 -331 0z m277
-146 c176 -40 300 -217 300 -429 -1 -134 -37 -232 -121 -325 -85 -92 -210
-133 -351 -113 -285 39 -437 384 -294 666 87 172 262 247 466 201z"/>
<path d="M7160 2485 l0 -65 70 0 70 0 0 -445 0 -445 -70 0 -70 0 0 -65 0 -65
318 0 c244 0 331 4 380 15 191 45 336 191 387 390 20 77 19 260 0 344 -33 139
-133 271 -253 334 -116 61 -158 67 -514 67 l-318 0 0 -65z m683 -91 c153 -60
244 -199 254 -389 9 -162 -35 -285 -134 -375 -86 -79 -136 -93 -340 -98 l-173
-4 0 447 0 447 173 -4 c136 -4 182 -9 220 -24z"/>
<path d="M10210 2486 l0 -66 70 0 70 0 0 -445 0 -445 -70 0 -70 0 0 -65 0 -65
245 0 245 0 0 65 0 65 -100 0 -100 0 0 144 0 144 173 4 c162 3 175 5 229 30
119 55 184 147 198 278 10 93 -5 182 -42 252 -36 69 -72 101 -148 137 l-55 26
-322 3 -323 3 0 -65z m618 -102 c47 -24 61 -38 85 -84 26 -49 28 -62 25 -126
-7 -101 -35 -150 -111 -188 -52 -26 -69 -29 -192 -34 l-135 -5 0 238 0 238
136 -5 c124 -5 140 -8 192 -34z"/>
<path d="M6410 2320 l0 -130 -65 0 -65 0 0 -60 0 -60 65 0 65 0 0 -257 c0
-230 2 -262 19 -298 41 -88 109 -125 233 -125 148 1 227 64 252 203 6 34 5 38
-21 48 -15 6 -43 12 -61 13 -30 1 -35 -3 -47 -38 -19 -55 -54 -86 -102 -93
-49 -6 -78 8 -103 50 -18 29 -20 52 -20 265 l0 232 150 0 150 0 0 60 0 60
-150 0 -150 0 0 130 0 130 -75 0 -75 0 0 -130z"/>
<path d="M5390 2189 c-14 -6 -40 -24 -57 -42 l-33 -31 0 37 0 37 -145 0 -146
0 3 -62 3 -63 68 -3 67 -3 0 -264 0 -265 -110 0 -110 0 0 330 0 330 -155 0
-155 0 0 -65 0 -65 80 0 80 0 0 -177 c0 -165 -2 -182 -24 -228 -69 -149 -241
-181 -330 -61 -20 26 -21 43 -24 312 l-3 284 -145 0 -144 0 0 -65 0 -65 70 0
70 0 0 -226 c0 -131 5 -243 11 -269 15 -58 71 -122 133 -151 41 -19 68 -24
136 -24 96 0 158 23 218 78 l32 31 0 -50 0 -49 350 0 350 0 0 65 0 65 -91 0
-90 0 3 208 c3 193 5 210 26 250 28 53 75 83 122 80 37 -3 44 -15 65 -112 l6
-29 61 7 c34 3 63 7 64 9 4 3 -24 197 -31 215 -13 35 -162 56 -225 31z"/>
<path d="M5835 2182 c-108 -37 -154 -98 -155 -204 0 -143 57 -188 297 -233
136 -26 183 -55 183 -115 -1 -84 -158 -135 -294 -96 l-58 17 6 48 c6 45 4 49
-16 55 -13 3 -42 6 -64 6 -47 0 -49 -3 -60 -130 l-7 -67 44 -21 c83 -40 164
-54 283 -50 96 3 119 7 171 31 114 53 149 108 143 228 -6 140 -41 164 -331
224 -94 20 -137 51 -137 99 0 80 124 121 243 80 49 -17 52 -21 63 -97 l7 -49
61 7 c33 4 63 9 64 10 9 8 -19 200 -30 211 -7 7 -48 24 -90 38 -95 32 -243 36
-323 8z"/>
<path d="M8512 2182 c-215 -77 -311 -386 -190 -615 37 -69 82 -111 158 -146
50 -24 66 -26 180 -26 122 0 128 1 192 33 104 51 167 136 193 256 l12 61 8
-50 c19 -125 79 -217 176 -270 46 -25 68 -30 145 -33 119 -5 176 13 240 75
l47 45 -6 -85 c-10 -148 -69 -238 -173 -267 -100 -28 -224 18 -277 103 -17 26
-35 47 -42 47 -7 0 -33 -9 -59 -20 -51 -23 -56 -37 -32 -94 23 -55 81 -111
148 -142 59 -27 71 -29 193 -29 127 0 132 1 197 33 102 50 164 136 188 262 5
29 10 207 10 396 l0 344 60 0 60 0 0 65 0 65 -135 0 -135 0 0 -47 0 -47 -32
31 c-56 53 -94 66 -200 71 -115 5 -175 -11 -236 -64 -50 -42 -119 -174 -128
-244 -8 -59 -19 -57 -26 3 -12 107 -105 235 -201 278 -73 32 -257 38 -335 11z
m223 -123 c62 -17 129 -90 150 -164 56 -191 -54 -375 -226 -375 -132 0 -230
114 -230 269 0 96 23 164 75 215 61 61 140 80 231 55z m786 0 c47 -15 104 -61
126 -102 9 -18 18 -67 21 -117 7 -121 -14 -187 -77 -250 -94 -94 -224 -93
-308 3 -42 48 -58 98 -58 187 0 205 131 328 296 279z"/>
<path d="M11282 2184 c-59 -16 -103 -36 -119 -56 -6 -7 -16 -53 -23 -102 -14
-103 -13 -106 67 -106 l51 0 14 62 c13 60 14 63 53 74 56 17 139 17 181 -1 43
-18 73 -79 74 -146 l0 -47 -137 -5 c-186 -6 -271 -35 -327 -110 -22 -30 -34
-145 -22 -212 16 -84 99 -136 227 -143 102 -5 151 12 223 78 33 31 46 38 46
26 0 -30 29 -75 58 -90 22 -11 81 -13 325 -8 l297 5 0 63 0 64 -91 0 -90 0 3
208 c3 193 5 210 26 250 28 53 75 83 122 80 37 -3 44 -15 65 -112 l6 -29 61 7
c34 3 63 7 64 9 4 3 -24 197 -31 215 -13 36 -157 56 -222 31 -15 -5 -43 -24
-60 -42 l-33 -31 0 37 0 37 -145 0 -146 0 3 -62 3 -63 68 -3 67 -3 0 -264 0
-265 -62 0 c-35 0 -69 -4 -77 -9 -21 -13 -47 -2 -60 25 -7 16 -11 103 -11 243
0 247 -8 289 -67 346 -19 19 -55 41 -81 49 -58 20 -226 20 -300 0z m251 -434
l47 0 0 -35 c0 -163 -243 -267 -326 -140 -19 28 -15 95 7 121 29 35 148 69
204 58 11 -2 41 -4 68 -4z"/>
</g>
</svg>
